<?xml version="1.0" standalone="no"?>
<!DOCTYPE svg PUBLIC "-//W3C//DTD SVG 1.1//EN" "http://www.w3.org/Graphics/SVG/1.1/DTD/svg11.dtd" >
<svg>
<metadata>
Created by FontForge 20120731 at Thu Nov  6 03:23:46 2014
 By Orthosie Webhosting
2000 Albert-Jan Pool, published by Fontshop International for the FontFont library.
</metadata>
<defs>
<font id="DINCond-Black" horiz-adv-x="424" >
  <font-face 
    font-family="DINCond-Black"
    font-weight="400"
    font-stretch="normal"
    units-per-em="1000"
    panose-1="2 1 5 4 3 1 1 2 1 4"
    ascent="800"
    descent="-200"
    x-height="538"
    cap-height="712"
    bbox="-102 -207 1098 983"
    underline-thickness="77"
    underline-position="-39"
    unicode-range="U+0020-FB02"
  />
<missing-glyph horiz-adv-x="442" 
d="M46 712h350v-712h-350v712zM300 96v520h-158v-520h158z" />
    <glyph glyph-name=".notdef" horiz-adv-x="442" 
d="M46 712h350v-712h-350v712zM300 96v520h-158v-520h158z" />
    <glyph glyph-name=".null" horiz-adv-x="0" 
 />
    <glyph glyph-name="nonmarkingreturn" horiz-adv-x="170" 
 />
    <glyph glyph-name="space" unicode=" " horiz-adv-x="170" 
 />
    <glyph glyph-name="Scaron" unicode="&#x160;" horiz-adv-x="468" 
d="M434 203q0 -54 -9 -92.5t-37 -65.5q-24 -23 -63.5 -38t-91.5 -15q-53 0 -91.5 14t-62.5 38q-26 26 -36.5 64.5t-10.5 93.5h142q0 -22 2.5 -38t12.5 -27q6 -7 16.5 -12t27.5 -5q31 0 45 18q14 17 14 60q0 25 -2.5 41.5t-9.5 27t-19 17.5t-31 15l-90 37q-27 11 -46.5 25
t-31.5 34t-18 49t-6 71q0 50 16 90t48 68q26 22 58 33.5t73 11.5q92 0 140 -45q29 -27 42 -69t13 -96h-142q0 19 -1.5 35.5t-10.5 28.5q-6 8 -15.5 13t-25.5 5q-15 0 -25 -5.5t-16 -13.5q-12 -16 -12 -51q0 -17 2 -28.5t7 -19.5t15 -14.5t25 -12.5l89 -36q34 -14 56 -29.5
t35.5 -39t19 -56.5t5.5 -81zM284 757h-102l-106 145h98l59 -77l59 77h98z" />
    <glyph glyph-name="scaron" unicode="&#x161;" horiz-adv-x="406" 
d="M380 165q0 -45 -15 -75.5t-36 -52.5q-26 -26 -58 -35.5t-68 -9.5t-70.5 12t-57.5 35q-23 25 -36.5 53.5t-14.5 69.5h132q1 -23 14 -35q6 -7 15 -10.5t18 -3.5q11 0 17.5 2t14.5 9q5 5 8 13.5t3 16.5q0 17 -9 30q-11 13 -35 23l-75 29q-59 23 -83 62q-18 30 -18 75
q0 44 13 72.5t36 51.5q24 25 57.5 37t69.5 12q35 0 67 -11.5t55 -32.5q22 -21 36 -50t14 -71h-131q0 21 -11 34q-13 13 -30 13q-19 0 -31 -12q-11 -10 -11 -30q0 -14 7 -24q9 -15 34 -24l74 -28q29 -11 48 -24.5t33 -32.5q11 -14 17.5 -36t6.5 -52zM256 587h-102l-106 145
h98l59 -77l59 77h98z" />
    <glyph glyph-name="Yacute" unicode="&#xdd;" horiz-adv-x="430" 
d="M286 268v-268h-142v268l-145 444h156l60 -258l60 258h156zM247 757h-88l76 145h107z" />
    <glyph glyph-name="yacute" unicode="&#xfd;" 
d="M270 -49q-12 -45 -33.5 -70.5t-50.5 -37.5t-65 -14.5t-76 -2.5v118q15 0 29.5 0.5t27 4.5t22 14t15.5 30l2 7l-137 538h148l60 -325l60 325h148zM244 587h-88l76 145h107z" />
    <glyph glyph-name="Thorn" unicode="&#xde;" horiz-adv-x="488" 
d="M456 362q0 -53 -9.5 -95t-32.5 -72t-61.5 -46t-96.5 -16h-59v-133h-142v712h142v-124h59q58 0 96.5 -16t61.5 -45t32.5 -71t9.5 -94zM314 361q0 17 -1.5 34.5t-7 32t-17 23.5t-31.5 9h-60v-199h60q20 0 31.5 9.5t17 24t7 32t1.5 34.5z" />
    <glyph glyph-name="thorn" unicode="&#xfe;" horiz-adv-x="436" 
d="M403 269q0 -81 -4.5 -139.5t-32.5 -93.5q-20 -25 -43.5 -34.5t-56.5 -9.5q-27 0 -51 13q-18 10 -33 27v-206h-134v886h128v-213q5 8 17.5 18.5t21.5 15.5q24 13 51 13q33 0 56.5 -9.5t43.5 -34.5q28 -35 32.5 -93.5t4.5 -139.5zM269 269q0 46 -1 82.5t-9 53.5
q-5 11 -15 16t-20 5q-16 0 -29 -11q-13 -13 -13 -38v-216q0 -25 13 -38q13 -11 29 -11q10 0 20 5t15 16q8 17 9 53.5t1 82.5z" />
    <glyph glyph-name="Zcaron" horiz-adv-x="400" 
d="M32 0v105l188 479h-178v128h326v-105l-188 -479h188v-128h-336zM256 757h-102l-106 145h98l59 -77l59 77h98z" />
    <glyph glyph-name="Zcaron" unicode="&#x17d;" horiz-adv-x="400" 
d="M32 0v105l188 479h-178v128h326v-105l-188 -479h188v-128h-336zM256 757h-102l-106 145h98l59 -77l59 77h98z" />
    <glyph glyph-name="zcaron" horiz-adv-x="352" 
d="M29 0v100l144 318h-131v120h283v-100l-144 -318h144v-120h-296zM236 587h-102l-106 145h98l59 -77l59 77h98z" />
    <glyph glyph-name="zcaron" unicode="&#x17e;" horiz-adv-x="352" 
d="M29 0v100l144 318h-131v120h283v-100l-144 -318h144v-120h-296zM236 587h-102l-106 145h98l59 -77l59 77h98z" />
    <glyph glyph-name="onehalf" unicode="&#xbd;" horiz-adv-x="777" 
d="M316 0h-102l245 712h102zM498 0v69l131 193q19 27 19 68q0 15 -8.5 22.5t-21.5 7.5t-22 -7t-9 -22v-36h-95v33q0 28 9 45.5t26 31.5t41 20.5t50 6.5t47.5 -5t39.5 -19q17 -13 28 -33t11 -48q0 -23 -9 -48t-20 -42l-115 -165h144v-72h-246zM129 285v333l-78 -47v91l78 50
h95v-427h-95z" />
    <glyph glyph-name="onequarter" unicode="&#xbc;" horiz-adv-x="777" 
d="M316 0h-102l245 712h102zM723 62v-62h-95v62h-145v73l100 292h93l-95 -292h47v51h95v-51h35v-73h-35zM129 285v333l-78 -47v91l78 50h95v-427h-95z" />
    <glyph glyph-name="onesuperior" unicode="&#xb9;" horiz-adv-x="317" 
d="M130 285v333l-79 -47v91l79 50h95v-427h-95z" />
    <glyph glyph-name="threequarters" unicode="&#xbe;" horiz-adv-x="777" 
d="M316 0h-102l245 712h102zM285 409q0 -29 -4 -54.5t-32 -47.5q-17 -14 -41 -20.5t-50 -6.5t-50 7t-41 21t-26 31.5t-9 45.5v22h95v-25q0 -13 8 -21q9 -9 23 -9q8 0 14 3t9 7q7 8 8 25t1 28t-0.5 27t-7.5 24q-8 10 -25 10h-23v68h23q14 0 20 6q8 8 8.5 21.5t0.5 23.5v21.5
t-7 20.5q-6 8 -21 8q-13 0 -21 -8q-6 -6 -6 -18v-29h-95v24q0 26 8.5 44t25.5 32t39.5 20.5t48.5 6.5q56 0 87 -26q19 -16 27.5 -39t8.5 -51q0 -17 -2 -33t-10 -31q-9 -17 -27 -27q19 -13 29 -29q10 -17 12 -35.5t2 -36.5zM722 62v-62h-95v62h-145v73l101 292h92l-94 -292
h46v51h95v-51h36v-73h-36z" />
    <glyph glyph-name="threesuperior" unicode="&#xb3;" horiz-adv-x="317" 
d="M285 409q0 -29 -4 -54.5t-32 -47.5q-17 -14 -41 -20.5t-50 -6.5t-50 7t-41 21t-26 31.5t-9 45.5v22h95v-25q0 -13 8 -21q9 -9 23 -9q8 0 14 3t9 7q7 8 8 25t1 28t-0.5 27t-7.5 24q-8 10 -25 10h-23v68h23q14 0 20 6q8 8 8.5 21.5t0.5 23.5v21.5t-7 20.5q-6 8 -21 8
q-13 0 -21 -8q-6 -6 -6 -18v-29h-95v24q0 26 8.5 44t25.5 32t39.5 20.5t48.5 6.5q56 0 87 -26q19 -16 27.5 -39t8.5 -51q0 -17 -2 -33t-10 -31q-9 -17 -27 -27q19 -13 29 -29q10 -17 12 -35.5t2 -36.5z" />
    <glyph glyph-name="twosuperior" unicode="&#xb2;" horiz-adv-x="317" 
d="M38 285v69l131 193q19 27 19 68q0 15 -8.5 22.5t-21.5 7.5t-22 -7t-9 -22v-36h-95v33q0 28 9 45.5t26 31.5t41 20.5t50 6.5t47.5 -5t39.5 -19q17 -13 28 -33t11 -48q0 -23 -9 -48t-20 -42l-115 -165h144v-72h-246z" />
    <glyph glyph-name="brokenbar" unicode="&#xa6;" horiz-adv-x="374" 
d="M120 439v344h134v-344h-134zM120 -71v344h134v-344h-134z" />
    <glyph glyph-name="minus" unicode="&#x2212;" horiz-adv-x="292" 
d="M42 231v128h208v-128h-208z" />
    <glyph glyph-name="multiply" unicode="&#xd7;" horiz-adv-x="472" 
d="M351 95l-115 115l-115 -115l-86 86l115 115l-115 115l86 86l115 -115l115 115l86 -86l-115 -115l115 -115z" />
    <glyph glyph-name="lslash" unicode="&#x142;" horiz-adv-x="292" 
d="M272 0q-42 0 -75.5 6t-62.5 27q-29 20 -45.5 53.5t-16.5 86.5v112l-47 -36v120l47 36v307h134v-202l47 36v-120l-47 -36v-208q0 -62 66 -62v-120z" />
    <glyph glyph-name="exclam" unicode="!" horiz-adv-x="274" 
d="M80 207v505h134v-505h-134zM72 0v150h150v-150h-150z" />
    <glyph glyph-name="quotedbl" unicode="&#x22;" horiz-adv-x="484" 
d="M78 501v211h122v-211h-122zM284 501v211h121v-211h-121z" />
    <glyph glyph-name="numbersign" unicode="#" horiz-adv-x="668" 
d="M540 420l-17 -107h70v-128h-91l-29 -185h-142l29 185h-110l-29 -185h-142l29 185h-66v128h87l17 107h-71v128h91l26 164h142l-26 -164h110l26 164h142l-26 -164h66v-128h-86zM288 420l-17 -107h110l17 107h-110z" />
    <glyph glyph-name="dollar" unicode="$" horiz-adv-x="474" 
d="M438 203q0 -54 -9 -92.5t-37 -65.5q-32 -32 -92 -46v-113h-126v112q-29 6 -52 18t-39 28q-26 26 -36.5 64.5t-10.5 93.5h142q0 -22 2.5 -38t12.5 -27q6 -7 16.5 -12t27.5 -5q31 0 45 18q14 17 14 60q0 25 -2.5 41.5t-9.5 27t-19 17.5t-31 15l-90 37q-27 11 -46.5 25
t-31.5 34t-18 49t-6 71q0 50 16 90t48 68q30 25 68 37v96h126v-94q24 -5 43 -15t34 -24q29 -27 42 -69t13 -96h-142q0 19 -1.5 35.5t-10.5 28.5q-6 8 -15.5 13t-25.5 5q-15 0 -25 -5.5t-16 -13.5q-12 -16 -12 -51q0 -17 2 -28.5t7 -19.5t15 -14.5t25 -12.5l89 -36
q34 -14 56 -29.5t35.5 -39t19 -56.5t5.5 -81z" />
    <glyph glyph-name="percent" unicode="%" horiz-adv-x="796" 
d="M328 479q0 -34 -12 -58.5t-31.5 -41t-45.5 -24.5t-54 -8t-54 8t-45.5 24.5t-31.5 41t-12 58.5v109q0 34 12 58.5t31.5 41t45.5 24.5t54 8t54 -8t45.5 -24.5t31.5 -41t12 -58.5v-109zM754 124q0 -34 -12 -58.5t-31.5 -41t-45.5 -24.5t-54 -8t-54 8t-45.5 24.5t-31.5 41
t-12 58.5v109q0 34 12 58.5t31.5 41t45.5 24.5t54 8t54 -8t45.5 -24.5t31.5 -41t12 -58.5v-109zM326 0h-102l248 712h102zM220 585q0 21 -10 30t-25 9t-25 -9t-10 -30v-103q0 -21 10 -30t25 -9t25 9t10 30v103zM646 230q0 21 -10 30t-25 9t-25 -9t-10 -30v-103q0 -21 10 -30
t25 -9t25 9t10 30v103z" />
    <glyph glyph-name="ampersand" unicode="&#x26;" horiz-adv-x="506" 
d="M369 0l-31 50q-27 -28 -59.5 -43t-75.5 -15q-38 0 -70 13t-54.5 37t-35 59t-12.5 79q0 59 26 110.5t71 99.5q-25 33 -46 74t-21 88q0 46 12.5 78t33 52t47 29t54.5 9q38 0 66.5 -12.5t47 -34t27.5 -50.5t9 -61q0 -63 -24 -108.5t-57 -83.5l59 -93q8 23 12 51t6 59h112
q-2 -60 -18.5 -122.5t-38.5 -106.5l97 -158h-137zM193 282q-20 -23 -29 -47t-9 -46q0 -38 18 -57.5t41 -19.5q16 0 31 9t29 31zM240 560q0 19 -9 29.5t-22 10.5q-11 0 -20.5 -9t-9.5 -35q0 -19 10.5 -43t21.5 -36q15 20 22 38t7 45z" />
    <glyph glyph-name="quotesingle" unicode="'" horiz-adv-x="279" 
d="M78 501v211h123v-211h-123z" />
    <glyph glyph-name="parenleft" unicode="(" horiz-adv-x="290" 
d="M158 -94q-26 26 -49 51t-40 54q-17 30 -22 63.5t-5 66.5v430q0 33 5 66.5t22 63.5q17 29 40 54t49 51l90 -90q-18 -18 -32.5 -33.5t-25.5 -34.5q-14 -24 -14 -83v-418q0 -59 14 -83q11 -19 25.5 -34.5t32.5 -33.5z" />
    <glyph glyph-name="parenright" unicode=")" horiz-adv-x="290" 
d="M248 141q0 -33 -5 -66.5t-22 -63.5q-17 -29 -40 -54t-49 -51l-90 90q18 18 32.5 33.5t25.5 34.5q14 24 14 83v418q0 59 -14 83q-11 19 -25.5 34.5t-32.5 33.5l90 90q26 -26 49 -51t40 -54q17 -30 22 -63.5t5 -66.5v-430z" />
    <glyph glyph-name="asterisk" unicode="*" horiz-adv-x="444" 
d="M359 385l-95 60l5 -125h-94l5 125l-96 -60l-45 79l100 52l-100 52l45 80l96 -61l-5 125h94l-5 -125l95 61l46 -80l-101 -52l101 -52z" />
    <glyph glyph-name="plus" unicode="+" horiz-adv-x="472" 
d="M300 231v-130h-128v130h-130v128h130v130h128v-130h130v-128h-130z" />
    <glyph glyph-name="comma" unicode="," horiz-adv-x="254" 
d="M56 -179v329h142v-224z" />
    <glyph glyph-name="hyphen" unicode="-" horiz-adv-x="292" 
d="M42 231v128h208v-128h-208z" />
    <glyph glyph-name="period" unicode="." horiz-adv-x="254" 
d="M52 0v150h150v-150h-150z" />
    <glyph glyph-name="slash" unicode="/" horiz-adv-x="327" 
d="M133 -74h-124l185 860h124z" />
    <glyph glyph-name="zero" unicode="0" 
d="M388 166q0 -47 -12.5 -76t-36.5 -52t-57.5 -34.5t-69.5 -11.5t-69.5 11.5t-57.5 34.5t-36.5 52t-12.5 76v380q0 47 12.5 76t36.5 52t57.5 34.5t69.5 11.5t69.5 -11.5t57.5 -34.5t36.5 -52t12.5 -76v-380zM254 551q0 25 -12 37t-30 12t-30 -12t-12 -37v-390q0 -25 12 -37
t30 -12t30 12t12 37v390z" />
    <glyph glyph-name="one" unicode="1" 
d="M183 0v555l-109 -78v150l109 85h134v-712h-134z" />
    <glyph glyph-name="two" unicode="2" 
d="M44 0v114l183 321q11 20 19 50t8 65q0 25 -11.5 37.5t-29.5 12.5t-30.5 -12t-12.5 -37v-43h-134v38q0 47 12.5 76t36.5 52t58 34.5t70 11.5t66.5 -9t55.5 -32q23 -21 38 -54t15 -80q0 -38 -10.5 -78.5t-28.5 -71.5l-161 -275h200v-120h-344z" />
    <glyph glyph-name="three" unicode="3" 
d="M391 207q0 -24 -0.5 -46.5t-5.5 -44t-15.5 -41.5t-29.5 -38q-24 -23 -57.5 -34t-69.5 -11t-70 11.5t-58 34.5t-36.5 52t-12.5 76v38h134v-43q0 -25 12.5 -37t30.5 -12q12 0 19.5 5.5t12.5 11.5t7.5 17.5t3.5 24t1 24.5v42q0 12 -1 23.5t-3.5 22.5t-6.5 18q-5 8 -13 12.5
t-21 4.5h-32v112h32q18 0 28 12q11 13 11.5 36t0.5 39q0 15 -0.5 35.5t-9.5 33.5q-5 6 -11.5 10t-17.5 4q-16 0 -27 -10.5t-11 -32.5v-49h-134v40q0 44 12.5 74t36.5 53t55.5 34t67.5 11q41 0 71 -11.5t51 -32.5q26 -26 38.5 -64t12.5 -85q0 -28 -2.5 -55t-14.5 -53
q-14 -27 -39 -45q28 -22 42 -48q14 -28 16.5 -58.5t2.5 -60.5z" />
    <glyph glyph-name="four" unicode="4" 
d="M356 104v-104h-134v104h-203v120l184 488h129l-175 -488h65v86h134v-86h49v-120h-49z" />
    <glyph glyph-name="five" unicode="5" 
d="M391 247q0 -31 -0.5 -60.5t-5 -56t-15 -50t-31.5 -42.5q-24 -23 -57.5 -34.5t-69.5 -11.5t-69.5 11.5t-57.5 34.5t-36.5 52t-12.5 76v28h134v-49q0 -25 12 -37t30 -12q21 0 33 16q5 7 7.5 21.5t3.5 32t1 35.5v63q0 16 -0.5 30.5t-2.5 27t-6 19.5q-12 21 -36 21
q-18 0 -30 -12t-12 -37v-5h-128v404h341v-120h-219v-157q8 10 18 19t21 15q24 13 51 13q37 0 60.5 -11t43.5 -34q12 -14 18.5 -35t9.5 -46.5t4 -53t1 -55.5z" />
    <glyph glyph-name="six" unicode="6" 
d="M390 219q0 -65 -9 -100.5t-25 -59.5q-23 -36 -61.5 -51.5t-83.5 -15.5q-51 0 -86.5 17.5t-55.5 49.5t-27.5 67.5t-7.5 92.5q0 42 8.5 83t20.5 72l131 338h140l-118 -277q8 5 17.5 6t17.5 1q30 0 56.5 -12t45.5 -38t28 -64t9 -109zM256 242q0 13 -1 26.5t-3.5 26.5
t-7.5 21q-12 16 -32 16q-21 0 -32 -16q-5 -8 -7.5 -21t-3.5 -27t-1 -27v-41q0 -12 1 -25.5t3.5 -26t7.5 -20.5q11 -16 32 -16t32 16q5 8 7.5 20.5t3.5 26t1 25.5v42z" />
    <glyph glyph-name="seven" unicode="7" 
d="M208 0h-132l184 592h-106v-84h-129v204h369v-112z" />
    <glyph glyph-name="eight" unicode="8" 
d="M390 204q0 -50 -8 -91t-43 -75q-24 -23 -57.5 -34.5t-69.5 -11.5t-69.5 11.5t-57.5 34.5q-35 34 -43 75t-8 91q0 29 3.5 58.5t15.5 54.5q14 28 43 51q-25 20 -38 47q-12 26 -15.5 52t-3.5 54q0 46 10 84.5t41 69.5q23 23 54 34t67 11t68 -11t55 -34q31 -31 41 -69.5
t10 -84.5q0 -28 -3.5 -54t-15.5 -52q-13 -27 -38 -47q29 -23 43 -51q12 -25 15.5 -54.5t3.5 -58.5zM256 229q0 12 -0.5 24.5t-3 24t-8.5 19.5q-12 15 -32 15q-22 0 -32 -15q-6 -8 -8.5 -19.5t-3 -24t-0.5 -24.5v-37q0 -11 1 -23t3.5 -23.5t7.5 -18.5q10 -15 32 -15
q20 0 32 15q5 7 7.5 18.5t3.5 23.5t1 23v37zM251 530q0 10 -0.5 21t-3 21t-7.5 16q-11 12 -28 12q-18 0 -28 -12q-5 -6 -7.5 -16t-3.5 -21t-0.5 -21t0.5 -16q0 -7 -0.5 -18t0.5 -23t4 -23t10 -17q10 -9 25 -9q16 0 25 9q7 7 10 18t4 22.5t0.5 22.5t-0.5 18v16z" />
    <glyph glyph-name="nine" unicode="9" 
d="M390 493q0 -42 -8.5 -83t-20.5 -72l-131 -338h-140l118 277q-8 -5 -17.5 -6t-17.5 -1q-30 0 -56.5 12t-45.5 38q-20 26 -28.5 64t-8.5 109q0 65 9 100.5t25 59.5q23 36 61.5 51.5t83.5 15.5q51 0 86.5 -17.5t55.5 -49.5t27.5 -67.5t7.5 -92.5zM256 511q0 13 -1 26.5
t-3.5 26t-7.5 20.5q-11 16 -32 16t-32 -16q-5 -8 -7.5 -20.5t-3.5 -26t-1 -26.5v-41q0 -13 1 -26.5t3.5 -26.5t7.5 -21q12 -16 32 -16q21 0 32 16q5 8 7.5 21t3.5 27t1 26v41z" />
    <glyph glyph-name="colon" unicode=":" horiz-adv-x="274" 
d="M72 298v150h150v-150h-150zM72 0v150h150v-150h-150z" />
    <glyph glyph-name="semicolon" unicode=";" horiz-adv-x="274" 
d="M76 -179v329h142v-224zM72 298v150h150v-150h-150z" />
    <glyph glyph-name="less" unicode="&#x3c;" 
d="M34 252v88l356 208v-146l-189 -106l189 -106v-146z" />
    <glyph glyph-name="equal" unicode="=" horiz-adv-x="472" 
d="M42 332v128h388v-128h-388zM42 130v128h388v-128h-388z" />
    <glyph glyph-name="greater" unicode="&#x3e;" 
d="M34 44v146l189 106l-189 106v146l356 -208v-88z" />
    <glyph glyph-name="question" unicode="?" horiz-adv-x="455" 
d="M427 511q0 -45 -9 -75.5t-28 -52.5l-59 -70q-24 -29 -24 -60v-46h-134v61q0 25 10 48t25 40l59 70q17 20 21.5 40t4.5 49q0 18 -2 35.5t-13 30.5q-15 17 -37 17q-21 0 -36 -17q-12 -14 -14 -34t-2 -40h-134q0 49 11.5 91t40.5 68q23 21 54.5 36.5t78.5 15.5
q45 0 78.5 -13.5t56.5 -36.5q29 -29 40.5 -67.5t11.5 -89.5zM165 0v150h150v-150h-150z" />
    <glyph glyph-name="at" unicode="@" horiz-adv-x="660" 
d="M482 0v39q-8 -10 -18 -19t-21 -15q-24 -13 -51 -13q-37 0 -60.5 11t-43.5 34q-16 19 -23 45.5t-7 76.5v168q0 25 1.5 43.5t5.5 33t9.5 25t13.5 20.5q20 23 43.5 34t60.5 11q27 0 51 -13q18 -11 33 -27v58q0 85 -79 85h-142q-79 0 -79 -85v-357q0 -27 7 -41.5t24 -31.5
l-98 -97q-18 18 -30.5 34.5t-20.5 35t-12 41t-4 51.5v389q0 47 13.5 77t37.5 53q47 46 129 46h208q82 0 129 -46q24 -23 37.5 -53t13.5 -77v-536h-128zM476 325q0 25 -12 37t-30 12t-30 -12t-12 -37v-164q0 -25 12 -37t30 -12t30 12t12 37v164z" />
    <glyph glyph-name="A" unicode="A" horiz-adv-x="518" 
d="M364 0l-23 111h-164l-23 -111h-148l183 712h140l183 -712h-148zM259 503l-55 -264h110z" />
    <glyph glyph-name="B" unicode="B" horiz-adv-x="503" 
d="M457 219q0 -58 -10.5 -101t-37.5 -71q-23 -23 -58.5 -35t-89.5 -12h-206v712h206q54 0 90 -11.5t59 -34.5q26 -25 36.5 -63.5t10.5 -89.5q0 -35 -5.5 -63.5t-28.5 -51.5q-7 -7 -14.5 -13t-18.5 -11q10 -5 17.5 -11.5t14.5 -13.5q25 -28 30 -64t5 -66zM315 220
q0 49 -15.5 70.5t-57.5 21.5h-45v-184h45q43 0 58 21.5t15 70.5zM315 508q0 41 -16 58.5t-59 17.5h-43v-152h43q42 0 58.5 18t16.5 58z" />
    <glyph glyph-name="C" unicode="C" horiz-adv-x="474" 
d="M444 203q-2 -51 -19 -92.5t-45 -67.5q-27 -26 -60 -38.5t-78 -12.5q-30 0 -53.5 5.5t-42 15.5t-33 22.5t-26.5 27.5q-21 25 -32 60.5t-15.5 75t-5 80t-0.5 76.5t0.5 77t5 80.5t15.5 75t32 61.5q12 15 26.5 27.5t33 22.5t42 15.5t53.5 5.5q45 0 78 -12.5t60 -38.5
q28 -26 44.5 -67t18.5 -92h-142q-1 15 -3 29.5t-8 25.5q-6 13 -17 20t-31 7t-30.5 -8t-16.5 -20t-10 -34t-6 -50t-2.5 -60t-0.5 -64t0.5 -64t2.5 -60t6 -50t10 -34t16.5 -20t30.5 -8t31.5 7.5t17.5 20.5q6 11 8 25.5t3 29.5h142z" />
    <glyph glyph-name="D" unicode="D" horiz-adv-x="499" 
d="M465 356q0 -35 -0.5 -75t-5 -79t-15.5 -73.5t-32 -59.5q-24 -28 -60 -48.5t-96 -20.5h-201v712h201q60 0 96 -20.5t60 -48.5q21 -25 32 -59.5t15.5 -73.5t5 -79t0.5 -75zM323 357q0 30 -0.5 59.5t-2 55.5t-5 47.5t-9.5 33.5q-7 14 -20 22.5t-33 8.5h-56v-456h56
q20 0 33 8.5t20 22.5q6 12 9.5 33.5t5 48t2 56.5t0.5 60z" />
    <glyph glyph-name="E" unicode="E" horiz-adv-x="415" 
d="M55 0v712h328v-128h-186v-161h160v-128h-160v-167h186v-128h-328z" />
    <glyph glyph-name="F" unicode="F" horiz-adv-x="407" 
d="M197 584v-161h160v-128h-160v-295h-142v712h328v-128h-186z" />
    <glyph glyph-name="G" unicode="G" horiz-adv-x="480" 
d="M444 211q0 -107 -55 -163t-147 -56q-30 0 -53.5 5.5t-42 15.5t-33 22.5t-26.5 27.5q-21 25 -32 60.5t-15.5 75.5t-5 80.5t-0.5 76.5t0.5 76.5t5 80.5t15.5 75t32 61q12 15 26.5 27.5t33 22.5t42 15.5t53.5 5.5q45 0 80 -14t61 -39q29 -29 44 -69.5t17 -89.5h-142
q0 11 -2 25.5t-8 27.5t-18 22t-32 9t-30.5 -8t-16.5 -20t-10 -34t-6 -50t-2.5 -60t-0.5 -64t0.5 -64t2.5 -60t6 -50t10 -34t16.5 -20t30.5 -8q18 0 29.5 7.5t18 19.5t9.5 26.5t3 29.5v74h-59v115h201v-181z" />
    <glyph glyph-name="H" unicode="H" horiz-adv-x="512" 
d="M315 0v298h-118v-298h-142v712h142v-286h118v286h142v-712h-142z" />
    <glyph glyph-name="I" unicode="I" horiz-adv-x="252" 
d="M55 0v712h142v-712h-142z" />
    <glyph glyph-name="J" unicode="J" horiz-adv-x="421" 
d="M371 205q0 -45 -13 -84t-39 -67q-29 -30 -68 -46t-95 -16q-48 0 -87.5 16t-68.5 45l98 96q8 -11 24 -20t34 -9q32 0 52.5 21.5t20.5 63.5v507h142v-507z" />
    <glyph glyph-name="K" unicode="K" horiz-adv-x="503" 
d="M345 0l-102 260l-46 -96v-164h-142v712h142v-306l135 306h142l-142 -296l165 -416h-152z" />
    <glyph glyph-name="L" unicode="L" horiz-adv-x="407" 
d="M55 0v712h142v-584h186v-128h-328z" />
    <glyph glyph-name="M" unicode="M" horiz-adv-x="621" 
d="M424 0v371l-78 -244h-73l-76 243v-370h-142v712h125l130 -349l130 349h126v-712h-142z" />
    <glyph glyph-name="N" unicode="N" horiz-adv-x="524" 
d="M348 0l-151 348v-348h-142v712h124l148 -348v348h142v-712h-121z" />
    <glyph glyph-name="O" unicode="O" horiz-adv-x="486" 
d="M452 356q0 -36 -0.5 -76.5t-5 -80.5t-15.5 -75.5t-32 -60.5q-25 -29 -61 -50t-96 -21q-30 0 -53.5 5.5t-42 15.5t-33 22.5t-26.5 27.5q-21 25 -32 60.5t-15.5 75.5t-5 80.5t-0.5 76.5t0.5 76.5t5 80.5t15.5 75t32 61q12 15 26.5 27.5t33 22.5t42 15.5t53.5 5.5
q60 0 96 -21t61 -50q21 -26 32 -61t15.5 -75t5 -80.5t0.5 -76.5zM310 356q0 32 -0.5 64t-2.5 60t-6 50t-10 34t-17.5 20t-31.5 8t-30.5 -8t-16.5 -20t-10 -34t-6 -50t-2.5 -60t-0.5 -64t0.5 -64t2.5 -60t6 -50t10 -34t16.5 -20t30.5 -8t31.5 8t17.5 20t10 34t6 50t2.5 60
t0.5 64z" />
    <glyph glyph-name="P" unicode="P" horiz-adv-x="487" 
d="M456 486q0 -53 -9.5 -95t-32.5 -72t-61.5 -46t-96.5 -16h-59v-257h-142v712h201q58 0 96.5 -16t61.5 -45t32.5 -71t9.5 -94zM314 485q0 17 -1.5 34.5t-7 32t-17 23.5t-31.5 9h-60v-199h60q20 0 31.5 9.5t17 24t7 32t1.5 34.5z" />
    <glyph glyph-name="Q" unicode="Q" horiz-adv-x="486" 
d="M422 -22l-59 50q-22 -16 -51 -26t-70 -10q-30 0 -53.5 5.5t-42 15.5t-33 22.5t-26.5 27.5q-21 25 -32 60.5t-15.5 75.5t-5 80.5t-0.5 76.5t0.5 76.5t5 80.5t15.5 75t32 61q12 15 26.5 27.5t33 22.5t42 15.5t53.5 5.5q60 0 96 -21t61 -50q21 -26 32 -61t15.5 -75t5 -80.5
t0.5 -76.5v-62t-2.5 -66t-8 -64t-16.5 -58l61 -51zM310 356q0 32 -0.5 64t-2.5 60t-6 50t-10 34t-17.5 20t-31.5 8t-30.5 -8t-16.5 -20t-10 -34t-6 -50t-2.5 -60t-0.5 -64t0.5 -64t2.5 -60t6 -50t10 -34t16.5 -20t30.5 -8q7 0 10 1l-26 22l64 77l15 -13q3 32 4 70.5t1 78.5z
" />
    <glyph glyph-name="R" unicode="R" horiz-adv-x="504" 
d="M331 0l-87 277h-47v-277h-142v712h203q58 0 96.5 -15t61 -42.5t31.5 -68t9 -91.5q0 -29 -3 -55.5t-11.5 -50.5t-24.5 -44.5t-42 -36.5l104 -308h-148zM314 495q0 15 -1.5 31t-7 29t-17 21t-31.5 8h-60v-179h60q20 0 31.5 8.5t17 21.5t7 29t1.5 31z" />
    <glyph glyph-name="S" unicode="S" horiz-adv-x="468" 
d="M434 203q0 -54 -9 -92.5t-37 -65.5q-24 -23 -63.5 -38t-91.5 -15q-53 0 -91.5 14t-62.5 38q-26 26 -36.5 64.5t-10.5 93.5h142q0 -22 2.5 -38t12.5 -27q6 -7 16.5 -12t27.5 -5q31 0 45 18q14 17 14 60q0 25 -2.5 41.5t-9.5 27t-19 17.5t-31 15l-90 37q-27 11 -46.5 25
t-31.5 34t-18 49t-6 71q0 50 16 90t48 68q26 22 58 33.5t73 11.5q92 0 140 -45q29 -27 42 -69t13 -96h-142q0 19 -1.5 35.5t-10.5 28.5q-6 8 -15.5 13t-25.5 5q-15 0 -25 -5.5t-16 -13.5q-12 -16 -12 -51q0 -17 2 -28.5t7 -19.5t15 -14.5t25 -12.5l89 -36q34 -14 56 -29.5
t35.5 -39t19 -56.5t5.5 -81z" />
    <glyph glyph-name="T" unicode="T" horiz-adv-x="422" 
d="M282 584v-584h-142v584h-120v128h382v-128h-120z" />
    <glyph glyph-name="U" unicode="U" horiz-adv-x="502" 
d="M452 191q0 -43 -13.5 -78.5t-39.5 -61.5q-57 -59 -148 -59t-148 59q-26 26 -39.5 61.5t-13.5 78.5v521h142v-528q0 -35 17.5 -49.5t41.5 -14.5t41.5 14.5t17.5 49.5v528h142v-521z" />
    <glyph glyph-name="V" unicode="V" horiz-adv-x="475" 
d="M311 0h-148l-159 712h156l77 -503l78 503h156z" />
    <glyph glyph-name="W" unicode="W" horiz-adv-x="786" 
d="M633 0h-148l-92 504l-92 -504h-148l-149 712h156l67 -503l88 503h156l88 -503l67 503h156z" />
    <glyph glyph-name="X" unicode="X" horiz-adv-x="466" 
d="M304 0l-71 227l-71 -227h-156l146 368l-135 344h156l60 -213l60 213h156l-139 -344l150 -368h-156z" />
    <glyph glyph-name="Y" unicode="Y" horiz-adv-x="430" 
d="M286 268v-268h-142v268l-145 444h156l60 -258l60 258h156z" />
    <glyph glyph-name="Z" unicode="Z" horiz-adv-x="400" 
d="M32 0v105l188 479h-178v128h326v-105l-188 -479h188v-128h-336z" />
    <glyph glyph-name="bracketleft" unicode="[" horiz-adv-x="307" 
d="M48 -74v860h231v-120h-97v-620h97v-120h-231z" />
    <glyph glyph-name="backslash" unicode="\" horiz-adv-x="327" 
d="M194 -74l-185 860h124l185 -860h-124z" />
    <glyph glyph-name="bracketright" unicode="]" horiz-adv-x="307" 
d="M28 -74v120h97v620h-97v120h231v-860h-231z" />
    <glyph glyph-name="asciicircum" unicode="^" horiz-adv-x="472" 
d="M311 432l-75 151l-75 -151h-129l146 284h116l146 -284h-129z" />
    <glyph glyph-name="underscore" unicode="_" horiz-adv-x="472" 
d="M0 -164v96h472v-96h-472z" />
    <glyph glyph-name="grave" unicode="`" 
d="M180 587l-95 145h107l76 -145h-88z" />
    <glyph glyph-name="a" unicode="a" horiz-adv-x="425" 
d="M256 0v44q-8 -10 -16 -19t-19 -16q-12 -8 -25.5 -12.5t-33.5 -4.5q-38 0 -62.5 11.5t-46.5 38.5q-17 21 -24 51t-7 68q0 76 52 120q20 17 49.5 27.5t82.5 10.5h41v62q0 47 -40 47q-11 0 -17.5 -3.5t-11.5 -9.5q-12 -15 -12 -37h-134q0 33 11.5 63t37.5 57q20 20 55 34
t70 14t67.5 -10t56.5 -34q23 -23 37 -55.5t14 -78.5v-368h-125zM247 226h-23q-17 0 -28.5 -1.5t-22.5 -11.5q-8 -8 -12.5 -21.5t-4.5 -24.5q0 -29 12.5 -43.5t33.5 -14.5q18 0 31.5 14.5t13.5 43.5v59z" />
    <glyph glyph-name="b" unicode="b" horiz-adv-x="432" 
d="M401 269q0 -81 -4.5 -139.5t-32.5 -93.5q-20 -25 -43.5 -34.5t-56.5 -9.5q-27 0 -51 13q-9 5 -21.5 15.5t-17.5 18.5v-39h-128v712h134v-206q15 16 33 27q24 13 51 13q33 0 56.5 -9.5t43.5 -34.5q28 -35 32.5 -93.5t4.5 -139.5zM267 269q0 46 -1 82.5t-9 53.5
q-5 11 -15 16t-20 5q-16 0 -29 -11q-13 -13 -13 -38v-216q0 -25 13 -38q13 -11 29 -11q10 0 20 5t15 16q8 17 9 53.5t1 82.5z" />
    <glyph glyph-name="c" unicode="c" horiz-adv-x="409" 
d="M385 166q-2 -38 -15 -73.5t-36 -58.5q-22 -22 -53.5 -32t-70.5 -10q-43 0 -79.5 12.5t-62.5 51.5q-13 19 -20.5 44.5t-11 54t-4.5 58t-1 56.5t1 56.5t4.5 58t11 54t20.5 44.5q26 39 62.5 51.5t79.5 12.5q36 0 66 -8t56 -33t38.5 -61.5t14.5 -71.5h-133q-1 9 -3 19t-7 18
q-10 17 -32 17q-10 0 -20 -5t-15 -16q-8 -17 -9 -53.5t-1 -82.5t1 -82.5t9 -53.5q5 -11 15 -16t20 -5q12 0 20 5t13 13t6.5 18t2.5 18h133z" />
    <glyph glyph-name="d" unicode="d" horiz-adv-x="432" 
d="M258 0v39q-5 -8 -17.5 -18.5t-21.5 -15.5q-24 -13 -51 -13q-33 0 -56.5 9.5t-43.5 34.5q-28 35 -32.5 93.5t-4.5 139.5t4.5 139.5t32.5 93.5q20 25 43.5 34.5t56.5 9.5q27 0 51 -13q18 -11 33 -27v206h134v-712h-128zM252 377q0 25 -13 38q-13 11 -29 11q-10 0 -20 -5
t-15 -16q-8 -17 -9 -53.5t-1 -82.5t1 -82.5t9 -53.5q5 -11 15 -16t20 -5q16 0 29 11q13 13 13 38v216z" />
    <glyph glyph-name="e" unicode="e" horiz-adv-x="419" 
d="M165 226q0 -27 2 -54.5t8 -38.5q5 -9 13.5 -15t21.5 -6t20.5 5.5t14.5 15.5q3 5 5 16t2 17h133q-2 -32 -12.5 -66t-35.5 -62q-23 -25 -55.5 -35.5t-71.5 -10.5q-41 0 -69 9.5t-57 37.5q-20 19 -30.5 46t-15.5 57.5t-6 63.5t-1 63t1 63t6 64t15.5 58t30.5 46
q29 28 60.5 37t65.5 9q35 0 66 -8.5t59 -37.5q22 -24 33 -57.5t15.5 -71t4.5 -75.5v-70h-223zM254 323q0 27 -2 51t-7 32q-6 8 -14 14t-21 6t-21 -6t-14 -14q-5 -8 -7.5 -32t-2.5 -51h89z" />
    <glyph glyph-name="f" unicode="f" horiz-adv-x="290" 
d="M204 416v-416h-134v416h-50v101h50v30q0 53 16.5 86.5t45.5 53.5q29 21 62.5 27t75.5 6v-120q-66 0 -66 -62v-21h66v-101h-66z" />
    <glyph glyph-name="g" unicode="g" horiz-adv-x="432" 
d="M386 -7q0 -44 -13.5 -75.5t-35.5 -53.5q-23 -22 -57.5 -34t-69.5 -12q-36 0 -69.5 11.5t-57.5 34.5q-27 26 -38 57.5t-11 63.5h134q0 -24 10 -38q11 -14 32 -14q20 0 32 14q10 11 10 35v105q-16 -19 -32 -29q-17 -10 -47 -10q-38 0 -58 9t-40 32q-26 32 -35 80t-9 128
t9 127.5t35 79.5q20 23 40 32.5t58 9.5q27 0 51 -13q10 -5 18 -12t16 -15v32h128v-545zM252 377q0 25 -12 37q-11 12 -30 12q-13 0 -20.5 -5.5t-14.5 -15.5q-8 -13 -9 -45.5t-1 -64.5t1 -64.5t9 -45.5q7 -10 14.5 -15.5t20.5 -5.5q19 0 31 13q11 13 11 36v164z" />
    <glyph glyph-name="h" unicode="h" horiz-adv-x="442" 
d="M264 0v377q0 25 -12 37t-30 12t-30 -12t-12 -37v-377h-134v712h134v-206q15 16 33 27q24 13 51 13q37 0 60.5 -11t43.5 -34q8 -10 13.5 -20.5t9.5 -25t5.5 -33t1.5 -43.5v-379h-134z" />
    <glyph glyph-name="i" unicode="i" horiz-adv-x="226" 
d="M46 0v517h134v-517h-134zM42 576v142h142v-142h-142z" />
    <glyph glyph-name="j" unicode="j" horiz-adv-x="226" 
d="M180 -1q0 -53 -16.5 -86.5t-45.5 -53.5q-29 -21 -62.5 -27t-75.5 -6v120q35 0 50.5 13.5t15.5 48.5v509h134v-518zM42 576v142h142v-142h-142z" />
    <glyph glyph-name="k" unicode="k" horiz-adv-x="440" 
d="M290 0l-77 198l-33 -52v-146h-134v712h134v-376l118 202h139l-138 -218l139 -320h-148z" />
    <glyph glyph-name="l" unicode="l" horiz-adv-x="262" 
d="M244 0q-42 0 -75.5 6t-62.5 27q-29 20 -45.5 53.5t-16.5 86.5v539h134v-530q0 -62 66 -62v-120z" />
    <glyph glyph-name="m" unicode="m" horiz-adv-x="660" 
d="M482 0v377q0 25 -12 37t-30 12t-30 -12t-12 -37v-377h-134v377q0 25 -12 37t-30 12t-30 -12t-12 -37v-377h-134v538h128v-39q8 10 18 19t21 15q24 13 51 13q34 0 61.5 -14.5t45.5 -40.5q11 12 25 23t29 19q11 6 27 9.5t26 3.5q40 0 64 -11t44 -34q8 -10 13.5 -20.5
t9.5 -25t5.5 -33t1.5 -43.5v-379h-134z" />
    <glyph glyph-name="n" unicode="n" horiz-adv-x="442" 
d="M264 0v377q0 25 -12 37t-30 12t-30 -12t-12 -37v-377h-134v538h128v-39q8 10 18 19t21 15q24 13 51 13q37 0 60.5 -11t43.5 -34q8 -10 13.5 -20.5t9.5 -25t5.5 -33t1.5 -43.5v-379h-134z" />
    <glyph glyph-name="o" unicode="o" horiz-adv-x="420" 
d="M389 269q0 -27 -1 -56.5t-5 -58t-11 -54t-20 -44.5q-26 -39 -62.5 -51.5t-79.5 -12.5t-79.5 12.5t-62.5 51.5q-13 19 -20.5 44.5t-11 54t-4.5 58t-1 56.5t1 56.5t4.5 58t11 54t20.5 44.5q26 39 62.5 51.5t79.5 12.5t79.5 -12.5t62.5 -51.5q13 -19 20 -44.5t11 -54t5 -58
t1 -56.5zM255 269q0 46 -1 82.5t-9 53.5q-5 11 -15 16t-20 5t-20 -5t-15 -16q-8 -17 -9 -53.5t-1 -82.5t1 -82.5t9 -53.5q5 -11 15 -16t20 -5t20 5t15 16q8 17 9 53.5t1 82.5z" />
    <glyph glyph-name="p" unicode="p" horiz-adv-x="432" 
d="M401 269q0 -81 -4.5 -139.5t-32.5 -93.5q-20 -25 -43.5 -34.5t-56.5 -9.5q-27 0 -51 13q-18 10 -33 27v-206h-134v712h128v-39q5 8 17.5 18.5t21.5 15.5q24 13 51 13q33 0 56.5 -9.5t43.5 -34.5q28 -35 32.5 -93.5t4.5 -139.5zM267 269q0 46 -1 82.5t-9 53.5
q-5 11 -15 16t-20 5q-16 0 -29 -11q-13 -13 -13 -38v-216q0 -25 13 -38q13 -11 29 -11q10 0 20 5t15 16q8 17 9 53.5t1 82.5z" />
    <glyph glyph-name="q" unicode="q" horiz-adv-x="432" 
d="M252 -174v206q-15 -17 -33 -27q-24 -13 -51 -13q-33 0 -56.5 9.5t-43.5 34.5q-28 35 -32.5 93.5t-4.5 139.5t4.5 139.5t32.5 93.5q20 25 43.5 34.5t56.5 9.5q27 0 51 -13q9 -5 21.5 -15.5t17.5 -18.5v39h128v-712h-134zM252 377q0 25 -13 38q-13 11 -29 11q-10 0 -20 -5
t-15 -16q-8 -17 -9 -53.5t-1 -82.5t1 -82.5t9 -53.5q5 -11 15 -16t20 -5q16 0 29 11q13 13 13 38v216z" />
    <glyph glyph-name="r" unicode="r" horiz-adv-x="330" 
d="M263 414q-34 0 -58.5 -22.5t-24.5 -63.5v-328h-134v538h128v-58q11 14 26 26.5t33 21.5q17 8 37 13t42 5v-132h-49z" />
    <glyph glyph-name="s" unicode="s" horiz-adv-x="406" 
d="M380 165q0 -45 -15 -75.5t-36 -52.5q-26 -26 -58 -35.5t-68 -9.5t-70.5 12t-57.5 35q-23 25 -36.5 53.5t-14.5 69.5h132q1 -23 14 -35q6 -7 15 -10.5t18 -3.5q11 0 17.5 2t14.5 9q5 5 8 13.5t3 16.5q0 17 -9 30q-11 13 -35 23l-75 29q-59 23 -83 62q-18 30 -18 75
q0 44 13 72.5t36 51.5q24 25 57.5 37t69.5 12q35 0 67 -11.5t55 -32.5q22 -21 36 -50t14 -71h-131q0 21 -11 34q-13 13 -30 13q-19 0 -31 -12q-11 -10 -11 -30q0 -14 7 -24q9 -15 34 -24l74 -28q29 -11 48 -24.5t33 -32.5q11 -14 17.5 -36t6.5 -52z" />
    <glyph glyph-name="t" unicode="t" horiz-adv-x="290" 
d="M270 0q-42 0 -75.5 6t-62.5 27q-29 20 -45.5 53.5t-16.5 86.5v243h-50v101h50v147h134v-147h66v-101h-66v-234q0 -62 66 -62v-120z" />
    <glyph glyph-name="u" unicode="u" horiz-adv-x="442" 
d="M268 0v39q-8 -10 -18 -19t-21 -15q-24 -13 -51 -13q-37 0 -60.5 11t-43.5 34q-16 19 -23 45.5t-7 76.5v379h134v-377q0 -25 12 -37t30 -12t30 12t12 37v377h134v-538h-128z" />
    <glyph glyph-name="v" unicode="v" 
d="M283 0h-142l-137 538h148l60 -325l60 325h148z" />
    <glyph glyph-name="w" unicode="w" horiz-adv-x="635" 
d="M502 0h-130l-55 301l-56 -301h-130l-127 538h148l50 -325l60 325h110l60 -325l50 325h149z" />
    <glyph glyph-name="x" unicode="x" horiz-adv-x="430" 
d="M277 0l-62 139l-62 -139h-149l131 273l-124 265h148l56 -137l56 137h149l-127 -265l133 -273h-149z" />
    <glyph glyph-name="y" unicode="y" 
d="M270 -49q-12 -45 -33.5 -70.5t-50.5 -37.5t-65 -14.5t-76 -2.5v118q15 0 29.5 0.5t27 4.5t22 14t15.5 30l2 7l-137 538h148l60 -325l60 325h148z" />
    <glyph glyph-name="z" unicode="z" horiz-adv-x="352" 
d="M28 0v100l144 318h-131v120h283v-100l-144 -318h144v-120h-296z" />
    <glyph glyph-name="braceleft" unicode="{" horiz-adv-x="362" 
d="M253 -74q-28 0 -54 9t-46 29q-17 17 -28 43.5t-11 63.5v189q0 14 -9.5 25t-25.5 11h-51v120h51q16 0 25.5 11t9.5 25v189q0 37 11 63.5t28 43.5q20 20 46 29t54 9h81v-120h-51q-16 0 -25.5 -11t-9.5 -25v-174q0 -28 -7.5 -46t-18.5 -29q-13 -13 -26 -18t-20 -7
q7 -3 20 -7q13 -5 26 -18q11 -11 18.5 -29t7.5 -46v-174q0 -14 9.5 -25t25.5 -11h51v-120h-81z" />
    <glyph glyph-name="bar" unicode="|" horiz-adv-x="374" 
d="M120 -74v860h134v-860h-134z" />
    <glyph glyph-name="braceright" unicode="}" horiz-adv-x="362" 
d="M283 296q-16 0 -25.5 -11t-9.5 -25v-189q0 -37 -11 -63.5t-28 -43.5q-20 -20 -46 -29t-54 -9h-81v120h51q16 0 25.5 11t9.5 25v174q0 28 7.5 46t18.5 29q13 13 26 18q12 4 20 7q-8 2 -20 7q-13 5 -26 18q-11 11 -18.5 29t-7.5 46v174q0 14 -9.5 25t-25.5 11h-51v120h81
q28 0 54 -9t46 -29q17 -17 28 -43.5t11 -63.5v-189q0 -14 9.5 -25t25.5 -11h51v-120h-51z" />
    <glyph glyph-name="asciitilde" unicode="~" horiz-adv-x="472" 
d="M462 289q-38 -38 -70.5 -55.5t-70.5 -17.5q-30 0 -51 7t-42 19q-16 9 -32 14.5t-37 5.5t-36.5 -8.5t-30.5 -23.5l-82 81q38 38 70.5 55.5t70.5 17.5q30 0 51 -7t42 -19q16 -9 32 -14.5t37 -5.5t36.5 8.5t30.5 23.5z" />
    <glyph glyph-name="Adieresis" unicode="&#xc4;" horiz-adv-x="518" 
d="M364 0l-23 111h-164l-23 -111h-148l183 712h140l183 -712h-148zM259 503l-55 -264h110zM297 762v120h120v-120h-120zM101 762v120h120v-120h-120z" />
    <glyph glyph-name="Aring" unicode="&#xc5;" horiz-adv-x="518" 
d="M364 0l-23 111h-164l-23 -111h-148l183 712h140l183 -712h-148zM371 871q0 -23 -9 -43.5t-24 -35.5t-35.5 -24t-43.5 -9t-43.5 9t-35.5 24t-24 35.5t-9 43.5t9 43.5t24 35.5t35.5 24t43.5 9t43.5 -8.5t35.5 -23.5t24 -35.5t9 -44.5zM259 503l-55 -264h110zM301 871
q0 17 -12.5 29.5t-29.5 12.5t-29.5 -12.5t-12.5 -29.5t12.5 -29.5t29.5 -12.5t29.5 12.5t12.5 29.5z" />
    <glyph glyph-name="Ccedilla" unicode="&#xc7;" horiz-adv-x="474" 
d="M444 203q-2 -51 -19 -92.5t-45 -67.5q-27 -26 -60 -38.5t-78 -12.5q-30 0 -53.5 5.5t-42 15.5t-33 22.5t-26.5 27.5q-21 25 -32 60.5t-15.5 75t-5 80t-0.5 76.5t0.5 77t5 80.5t15.5 75t32 61.5q12 15 26.5 27.5t33 22.5t42 15.5t53.5 5.5q45 0 78 -12.5t60 -38.5
q28 -26 44.5 -67t18.5 -92h-142q-1 15 -3 29.5t-8 25.5q-6 13 -17 20t-31 7t-30.5 -8t-16.5 -20t-10 -34t-6 -50t-2.5 -60t-0.5 -64t0.5 -64t2.5 -60t6 -50t10 -34t16.5 -20t30.5 -8t31.5 7.5t17.5 20.5q6 11 8 25.5t3 29.5h142zM227 -207h-89l66 166h80z" />
    <glyph glyph-name="Eacute" unicode="&#xc9;" horiz-adv-x="415" 
d="M55 0v712h328v-128h-186v-161h160v-128h-160v-167h186v-128h-328zM254 757h-88l76 145h107z" />
    <glyph glyph-name="Ntilde" unicode="&#xd1;" horiz-adv-x="524" 
d="M348 0l-151 348v-348h-142v712h124l148 -348v348h142v-712h-121zM428 815q-26 -26 -48.5 -38.5t-51.5 -12.5q-18 0 -33 3t-33 14q-23 14 -45 14q-11 0 -22 -3.5t-26 -18.5l-55 56q26 26 48 39t51 13q18 0 33 -3.5t33 -14.5q23 -14 45 -14q11 0 21.5 3.5t25.5 18.5z" />
    <glyph glyph-name="Odieresis" unicode="&#xd6;" horiz-adv-x="486" 
d="M452 356q0 -36 -0.5 -76.5t-5 -80.5t-15.5 -75.5t-32 -60.5q-25 -29 -61 -50t-96 -21q-30 0 -53.5 5.5t-42 15.5t-33 22.5t-26.5 27.5q-21 25 -32 60.5t-15.5 75.5t-5 80.5t-0.5 76.5t0.5 76.5t5 80.5t15.5 75t32 61q12 15 26.5 27.5t33 22.5t42 15.5t53.5 5.5
q60 0 96 -21t61 -50q21 -26 32 -61t15.5 -75t5 -80.5t0.5 -76.5zM310 356q0 32 -0.5 64t-2.5 60t-6 50t-10 34t-17.5 20t-31.5 8t-30.5 -8t-16.5 -20t-10 -34t-6 -50t-2.5 -60t-0.5 -64t0.5 -64t2.5 -60t6 -50t10 -34t16.5 -20t30.5 -8t31.5 8t17.5 20t10 34t6 50t2.5 60
t0.5 64zM273 762v120h120v-120h-120zM77 762v120h120v-120h-120z" />
    <glyph glyph-name="Udieresis" unicode="&#xdc;" horiz-adv-x="502" 
d="M452 191q0 -43 -13.5 -78.5t-39.5 -61.5q-57 -59 -148 -59t-148 59q-26 26 -39.5 61.5t-13.5 78.5v521h142v-528q0 -35 17.5 -49.5t41.5 -14.5t41.5 14.5t17.5 49.5v528h142v-521zM289 762v120h120v-120h-120zM93 762v120h120v-120h-120z" />
    <glyph glyph-name="aacute" unicode="&#xe1;" horiz-adv-x="425" 
d="M256 0v44q-8 -10 -16 -19t-19 -16q-12 -8 -25.5 -12.5t-33.5 -4.5q-38 0 -62.5 11.5t-46.5 38.5q-17 21 -24 51t-7 68q0 76 52 120q20 17 49.5 27.5t82.5 10.5h41v62q0 47 -40 47q-11 0 -17.5 -3.5t-11.5 -9.5q-12 -15 -12 -37h-134q0 33 11.5 63t37.5 57q20 20 55 34
t70 14t67.5 -10t56.5 -34q23 -23 37 -55.5t14 -78.5v-368h-125zM244 587h-88l76 145h107zM247 226h-23q-17 0 -28.5 -1.5t-22.5 -11.5q-8 -8 -12.5 -21.5t-4.5 -24.5q0 -29 12.5 -43.5t33.5 -14.5q18 0 31.5 14.5t13.5 43.5v59z" />
    <glyph glyph-name="agrave" unicode="&#xe0;" horiz-adv-x="425" 
d="M256 0v44q-8 -10 -16 -19t-19 -16q-12 -8 -25.5 -12.5t-33.5 -4.5q-38 0 -62.5 11.5t-46.5 38.5q-17 21 -24 51t-7 68q0 76 52 120q20 17 49.5 27.5t82.5 10.5h41v62q0 47 -40 47q-11 0 -17.5 -3.5t-11.5 -9.5q-12 -15 -12 -37h-134q0 33 11.5 63t37.5 57q20 20 55 34
t70 14t67.5 -10t56.5 -34q23 -23 37 -55.5t14 -78.5v-368h-125zM177 587l-95 145h107l76 -145h-88zM247 226h-23q-17 0 -28.5 -1.5t-22.5 -11.5q-8 -8 -12.5 -21.5t-4.5 -24.5q0 -29 12.5 -43.5t33.5 -14.5q18 0 31.5 14.5t13.5 43.5v59z" />
    <glyph glyph-name="acircumflex" unicode="&#xe2;" horiz-adv-x="425" 
d="M256 0v44q-8 -10 -16 -19t-19 -16q-12 -8 -25.5 -12.5t-33.5 -4.5q-38 0 -62.5 11.5t-46.5 38.5q-17 21 -24 51t-7 68q0 76 52 120q20 17 49.5 27.5t82.5 10.5h41v62q0 47 -40 47q-11 0 -17.5 -3.5t-11.5 -9.5q-12 -15 -12 -37h-134q0 33 11.5 63t37.5 57q20 20 55 34
t70 14t67.5 -10t56.5 -34q23 -23 37 -55.5t14 -78.5v-368h-125zM267 587l-59 77l-59 -77h-98l106 145h102l106 -145h-98zM247 226h-23q-17 0 -28.5 -1.5t-22.5 -11.5q-8 -8 -12.5 -21.5t-4.5 -24.5q0 -29 12.5 -43.5t33.5 -14.5q18 0 31.5 14.5t13.5 43.5v59z" />
    <glyph glyph-name="adieresis" unicode="&#xe4;" horiz-adv-x="425" 
d="M256 0v44q-8 -10 -16 -19t-19 -16q-12 -8 -25.5 -12.5t-33.5 -4.5q-38 0 -62.5 11.5t-46.5 38.5q-17 21 -24 51t-7 68q0 76 52 120q20 17 49.5 27.5t82.5 10.5h41v62q0 47 -40 47q-11 0 -17.5 -3.5t-11.5 -9.5q-12 -15 -12 -37h-134q0 33 11.5 63t37.5 57q20 20 55 34
t70 14t67.5 -10t56.5 -34q23 -23 37 -55.5t14 -78.5v-368h-125zM50 592v120h120v-120h-120zM246 592v120h120v-120h-120zM247 226h-23q-17 0 -28.5 -1.5t-22.5 -11.5q-8 -8 -12.5 -21.5t-4.5 -24.5q0 -29 12.5 -43.5t33.5 -14.5q18 0 31.5 14.5t13.5 43.5v59z" />
    <glyph glyph-name="atilde" unicode="&#xe3;" horiz-adv-x="425" 
d="M256 0v44q-8 -10 -16 -19t-19 -16q-12 -8 -25.5 -12.5t-33.5 -4.5q-38 0 -62.5 11.5t-46.5 38.5q-17 21 -24 51t-7 68q0 76 52 120q20 17 49.5 27.5t82.5 10.5h41v62q0 47 -40 47q-11 0 -17.5 -3.5t-11.5 -9.5q-12 -15 -12 -37h-134q0 33 11.5 63t37.5 57q20 20 55 34
t70 14t67.5 -10t56.5 -34q23 -23 37 -55.5t14 -78.5v-368h-125zM370 645q-26 -26 -48.5 -38.5t-51.5 -12.5q-18 0 -33 3t-33 14q-23 14 -45 14q-11 0 -22 -3.5t-26 -18.5l-55 56q26 26 48 39t51 13q18 0 33 -3.5t33 -14.5q23 -14 45 -14q11 0 21.5 3.5t25.5 18.5zM247 226
h-23q-17 0 -28.5 -1.5t-22.5 -11.5q-8 -8 -12.5 -21.5t-4.5 -24.5q0 -29 12.5 -43.5t33.5 -14.5q18 0 31.5 14.5t13.5 43.5v59z" />
    <glyph glyph-name="aring" unicode="&#xe5;" horiz-adv-x="425" 
d="M256 0v44q-8 -10 -16 -19t-19 -16q-12 -8 -25.5 -12.5t-33.5 -4.5q-38 0 -62.5 11.5t-46.5 38.5q-17 21 -24 51t-7 68q0 76 52 120q20 17 49.5 27.5t82.5 10.5h41v62q0 47 -40 47q-11 0 -17.5 -3.5t-11.5 -9.5q-12 -15 -12 -37h-134q0 33 11.5 63t37.5 57q20 20 55 34
t70 14t67.5 -10t56.5 -34q23 -23 37 -55.5t14 -78.5v-368h-125zM320 701q0 -23 -9 -43.5t-24 -35.5t-35.5 -24t-43.5 -9t-43.5 9t-35.5 24t-24 35.5t-9 43.5t9 43.5t24 35.5t35.5 24t43.5 9t43.5 -8.5t35.5 -23.5t24 -35.5t9 -44.5zM247 226h-23q-17 0 -28.5 -1.5
t-22.5 -11.5q-8 -8 -12.5 -21.5t-4.5 -24.5q0 -29 12.5 -43.5t33.5 -14.5q18 0 31.5 14.5t13.5 43.5v59zM250 701q0 17 -12.5 29.5t-29.5 12.5t-29.5 -12.5t-12.5 -29.5t12.5 -29.5t29.5 -12.5t29.5 12.5t12.5 29.5z" />
    <glyph glyph-name="ccedilla" unicode="&#xe7;" horiz-adv-x="409" 
d="M385 166q-2 -38 -15 -73.5t-36 -58.5q-22 -22 -53.5 -32t-70.5 -10q-43 0 -79.5 12.5t-62.5 51.5q-13 19 -20.5 44.5t-11 54t-4.5 58t-1 56.5t1 56.5t4.5 58t11 54t20.5 44.5q26 39 62.5 51.5t79.5 12.5q36 0 66 -8t56 -33t38.5 -61.5t14.5 -71.5h-133q-1 9 -3 19t-7 18
q-10 17 -32 17q-10 0 -20 -5t-15 -16q-8 -17 -9 -53.5t-1 -82.5t1 -82.5t9 -53.5q5 -11 15 -16t20 -5q12 0 20 5t13 13t6.5 18t2.5 18h133zM205 -207h-89l66 166h80z" />
    <glyph glyph-name="eacute" unicode="&#xe9;" horiz-adv-x="419" 
d="M165 226q0 -27 2 -54.5t8 -38.5q5 -9 13.5 -15t21.5 -6t20.5 5.5t14.5 15.5q3 5 5 16t2 17h133q-2 -32 -12.5 -66t-35.5 -62q-23 -25 -55.5 -35.5t-71.5 -10.5q-41 0 -69 9.5t-57 37.5q-20 19 -30.5 46t-15.5 57.5t-6 63.5t-1 63t1 63t6 64t15.5 58t30.5 46
q29 28 60.5 37t65.5 9q35 0 66 -8.5t59 -37.5q22 -24 33 -57.5t15.5 -71t4.5 -75.5v-70h-223zM244 587h-88l76 145h107zM254 323q0 27 -2 51t-7 32q-6 8 -14 14t-21 6t-21 -6t-14 -14q-5 -8 -7.5 -32t-2.5 -51h89z" />
    <glyph glyph-name="egrave" unicode="&#xe8;" horiz-adv-x="419" 
d="M165 226q0 -27 2 -54.5t8 -38.5q5 -9 13.5 -15t21.5 -6t20.5 5.5t14.5 15.5q3 5 5 16t2 17h133q-2 -32 -12.5 -66t-35.5 -62q-23 -25 -55.5 -35.5t-71.5 -10.5q-41 0 -69 9.5t-57 37.5q-20 19 -30.5 46t-15.5 57.5t-6 63.5t-1 63t1 63t6 64t15.5 58t30.5 46
q29 28 60.5 37t65.5 9q35 0 66 -8.5t59 -37.5q22 -24 33 -57.5t15.5 -71t4.5 -75.5v-70h-223zM180 587l-95 145h107l76 -145h-88zM254 323q0 27 -2 51t-7 32q-6 8 -14 14t-21 6t-21 -6t-14 -14q-5 -8 -7.5 -32t-2.5 -51h89z" />
    <glyph glyph-name="ecircumflex" unicode="&#xea;" horiz-adv-x="419" 
d="M165 226q0 -27 2 -54.5t8 -38.5q5 -9 13.5 -15t21.5 -6t20.5 5.5t14.5 15.5q3 5 5 16t2 17h133q-2 -32 -12.5 -66t-35.5 -62q-23 -25 -55.5 -35.5t-71.5 -10.5q-41 0 -69 9.5t-57 37.5q-20 19 -30.5 46t-15.5 57.5t-6 63.5t-1 63t1 63t6 64t15.5 58t30.5 46
q29 28 60.5 37t65.5 9q35 0 66 -8.5t59 -37.5q22 -24 33 -57.5t15.5 -71t4.5 -75.5v-70h-223zM271 587l-59 77l-59 -77h-98l106 145h102l106 -145h-98zM254 323q0 27 -2 51t-7 32q-6 8 -14 14t-21 6t-21 -6t-14 -14q-5 -8 -7.5 -32t-2.5 -51h89z" />
    <glyph glyph-name="edieresis" unicode="&#xeb;" horiz-adv-x="419" 
d="M165 226q0 -27 2 -54.5t8 -38.5q5 -9 13.5 -15t21.5 -6t20.5 5.5t14.5 15.5q3 5 5 16t2 17h133q-2 -32 -12.5 -66t-35.5 -62q-23 -25 -55.5 -35.5t-71.5 -10.5q-41 0 -69 9.5t-57 37.5q-20 19 -30.5 46t-15.5 57.5t-6 63.5t-1 63t1 63t6 64t15.5 58t30.5 46
q29 28 60.5 37t65.5 9q35 0 66 -8.5t59 -37.5q22 -24 33 -57.5t15.5 -71t4.5 -75.5v-70h-223zM54 592v120h120v-120h-120zM250 592v120h120v-120h-120zM254 323q0 27 -2 51t-7 32q-6 8 -14 14t-21 6t-21 -6t-14 -14q-5 -8 -7.5 -32t-2.5 -51h89z" />
    <glyph glyph-name="iacute" unicode="&#xed;" horiz-adv-x="226" 
d="M48 0v538h134v-538h-134zM148 587h-88l76 145h107z" />
    <glyph glyph-name="igrave" unicode="&#xec;" horiz-adv-x="226" 
d="M48 0v538h134v-538h-134zM86 587l-95 145h107l76 -145h-88z" />
    <glyph glyph-name="icircumflex" unicode="&#xee;" horiz-adv-x="226" 
d="M48 0v538h134v-538h-134zM173 587l-59 77l-59 -77h-98l106 145h102l106 -145h-98z" />
    <glyph glyph-name="idieresis" unicode="&#xef;" horiz-adv-x="226" 
d="M48 0v538h134v-538h-134zM-44 592v120h120v-120h-120zM152 592v120h120v-120h-120z" />
    <glyph glyph-name="ntilde" unicode="&#xf1;" horiz-adv-x="442" 
d="M264 0v377q0 25 -12 37t-30 12t-30 -12t-12 -37v-377h-134v538h128v-39q8 10 18 19t21 15q24 13 51 13q37 0 60.5 -11t43.5 -34q8 -10 13.5 -20.5t9.5 -25t5.5 -33t1.5 -43.5v-379h-134zM386 645q-26 -26 -48.5 -38.5t-51.5 -12.5q-18 0 -33 3t-33 14q-23 14 -45 14
q-11 0 -22 -3.5t-26 -18.5l-55 56q26 26 48 39t51 13q18 0 33 -3.5t33 -14.5q23 -14 45 -14q11 0 21.5 3.5t25.5 18.5z" />
    <glyph glyph-name="oacute" unicode="&#xf3;" horiz-adv-x="420" 
d="M389 269q0 -27 -1 -56.5t-5 -58t-11 -54t-20 -44.5q-26 -39 -62.5 -51.5t-79.5 -12.5t-79.5 12.5t-62.5 51.5q-13 19 -20.5 44.5t-11 54t-4.5 58t-1 56.5t1 56.5t4.5 58t11 54t20.5 44.5q26 39 62.5 51.5t79.5 12.5t79.5 -12.5t62.5 -51.5q13 -19 20 -44.5t11 -54t5 -58
t1 -56.5zM255 269q0 46 -1 82.5t-9 53.5q-5 11 -15 16t-20 5t-20 -5t-15 -16q-8 -17 -9 -53.5t-1 -82.5t1 -82.5t9 -53.5q5 -11 15 -16t20 -5t20 5t15 16q8 17 9 53.5t1 82.5zM244 587h-88l76 145h107z" />
    <glyph glyph-name="ograve" unicode="&#xf2;" horiz-adv-x="420" 
d="M389 269q0 -27 -1 -56.5t-5 -58t-11 -54t-20 -44.5q-26 -39 -62.5 -51.5t-79.5 -12.5t-79.5 12.5t-62.5 51.5q-13 19 -20.5 44.5t-11 54t-4.5 58t-1 56.5t1 56.5t4.5 58t11 54t20.5 44.5q26 39 62.5 51.5t79.5 12.5t79.5 -12.5t62.5 -51.5q13 -19 20 -44.5t11 -54t5 -58
t1 -56.5zM255 269q0 46 -1 82.5t-9 53.5q-5 11 -15 16t-20 5t-20 -5t-15 -16q-8 -17 -9 -53.5t-1 -82.5t1 -82.5t9 -53.5q5 -11 15 -16t20 -5t20 5t15 16q8 17 9 53.5t1 82.5zM180 587l-95 145h107l76 -145h-88z" />
    <glyph glyph-name="ocircumflex" unicode="&#xf4;" horiz-adv-x="420" 
d="M389 269q0 -27 -1 -56.5t-5 -58t-11 -54t-20 -44.5q-26 -39 -62.5 -51.5t-79.5 -12.5t-79.5 12.5t-62.5 51.5q-13 19 -20.5 44.5t-11 54t-4.5 58t-1 56.5t1 56.5t4.5 58t11 54t20.5 44.5q26 39 62.5 51.5t79.5 12.5t79.5 -12.5t62.5 -51.5q13 -19 20 -44.5t11 -54t5 -58
t1 -56.5zM255 269q0 46 -1 82.5t-9 53.5q-5 11 -15 16t-20 5t-20 -5t-15 -16q-8 -17 -9 -53.5t-1 -82.5t1 -82.5t9 -53.5q5 -11 15 -16t20 -5t20 5t15 16q8 17 9 53.5t1 82.5zM271 587l-59 77l-59 -77h-98l106 145h102l106 -145h-98z" />
    <glyph glyph-name="odieresis" unicode="&#xf6;" horiz-adv-x="420" 
d="M389 269q0 -27 -1 -56.5t-5 -58t-11 -54t-20 -44.5q-26 -39 -62.5 -51.5t-79.5 -12.5t-79.5 12.5t-62.5 51.5q-13 19 -20.5 44.5t-11 54t-4.5 58t-1 56.5t1 56.5t4.5 58t11 54t20.5 44.5q26 39 62.5 51.5t79.5 12.5t79.5 -12.5t62.5 -51.5q13 -19 20 -44.5t11 -54t5 -58
t1 -56.5zM255 269q0 46 -1 82.5t-9 53.5q-5 11 -15 16t-20 5t-20 -5t-15 -16q-8 -17 -9 -53.5t-1 -82.5t1 -82.5t9 -53.5q5 -11 15 -16t20 -5t20 5t15 16q8 17 9 53.5t1 82.5zM250 592v120h120v-120h-120zM54 592v120h120v-120h-120z" />
    <glyph glyph-name="otilde" unicode="&#xf5;" horiz-adv-x="420" 
d="M389 269q0 -27 -1 -56.5t-5 -58t-11 -54t-20 -44.5q-26 -39 -62.5 -51.5t-79.5 -12.5t-79.5 12.5t-62.5 51.5q-13 19 -20.5 44.5t-11 54t-4.5 58t-1 56.5t1 56.5t4.5 58t11 54t20.5 44.5q26 39 62.5 51.5t79.5 12.5t79.5 -12.5t62.5 -51.5q13 -19 20 -44.5t11 -54t5 -58
t1 -56.5zM255 269q0 46 -1 82.5t-9 53.5q-5 11 -15 16t-20 5t-20 -5t-15 -16q-8 -17 -9 -53.5t-1 -82.5t1 -82.5t9 -53.5q5 -11 15 -16t20 -5t20 5t15 16q8 17 9 53.5t1 82.5zM373 645q-26 -26 -48.5 -38.5t-51.5 -12.5q-18 0 -33 3t-33 14q-23 14 -45 14q-11 0 -22 -3.5
t-26 -18.5l-55 56q26 26 48 39t51 13q18 0 33 -3.5t33 -14.5q23 -14 45 -14q11 0 21.5 3.5t25.5 18.5z" />
    <glyph glyph-name="uacute" unicode="&#xfa;" horiz-adv-x="442" 
d="M268 0v39q-8 -10 -18 -19t-21 -15q-24 -13 -51 -13q-37 0 -60.5 11t-43.5 34q-16 19 -23 45.5t-7 76.5v379h134v-377q0 -25 12 -37t30 -12t30 12t12 37v377h134v-538h-128zM266 587h-88l76 145h107z" />
    <glyph glyph-name="ugrave" unicode="&#xf9;" horiz-adv-x="442" 
d="M268 0v39q-8 -10 -18 -19t-21 -15q-24 -13 -51 -13q-37 0 -60.5 11t-43.5 34q-16 19 -23 45.5t-7 76.5v379h134v-377q0 -25 12 -37t30 -12t30 12t12 37v377h134v-538h-128zM180 587l-95 145h107l76 -145h-88z" />
    <glyph glyph-name="ucircumflex" unicode="&#xfb;" horiz-adv-x="442" 
d="M268 0v39q-8 -10 -18 -19t-21 -15q-24 -13 -51 -13q-37 0 -60.5 11t-43.5 34q-16 19 -23 45.5t-7 76.5v379h134v-377q0 -25 12 -37t30 -12t30 12t12 37v377h134v-538h-128zM279 587l-59 77l-59 -77h-98l106 145h102l106 -145h-98z" />
    <glyph glyph-name="udieresis" unicode="&#xfc;" horiz-adv-x="442" 
d="M268 0v39q-8 -10 -18 -19t-21 -15q-24 -13 -51 -13q-37 0 -60.5 11t-43.5 34q-16 19 -23 45.5t-7 76.5v379h134v-377q0 -25 12 -37t30 -12t30 12t12 37v377h134v-538h-128zM61 592v120h120v-120h-120zM257 592v120h120v-120h-120z" />
    <glyph glyph-name="dagger" unicode="&#x2020;" horiz-adv-x="456" 
d="M290 427v-427h-124v427h-124v111h124v174h124v-174h124v-111h-124z" />
    <glyph glyph-name="degree" unicode="&#xb0;" horiz-adv-x="426" 
d="M390 553q0 -37 -14 -69t-38 -56t-56 -38t-69 -14t-69 14t-56 38t-38 56t-14 69t14 69t38 56t56 38t69 14t69 -14t56 -38t38 -56t14 -69zM272 553q0 25 -17 42t-42 17t-42 -17t-17 -42t17 -42t42 -17t42 17t17 42z" />
    <glyph glyph-name="cent" unicode="&#xa2;" horiz-adv-x="420" 
d="M392 268q-2 -35 -15 -69t-36 -56q-27 -26 -72 -35v-108h-102v107q-27 5 -50.5 18t-41.5 39q-13 18 -20.5 42t-11 51t-4.5 55t-1 54t1 54t4.5 55t11 51t20.5 42q18 26 41.5 39t50.5 18v87h102v-87q40 -8 70 -35q26 -23 38.5 -57.5t14.5 -68.5h-133q-1 8 -3 17.5t-7 17.5
q-5 7 -12.5 11.5t-19.5 4.5q-10 0 -20 -4.5t-15 -15.5q-8 -16 -9 -50.5t-1 -78.5t1 -78.5t9 -50.5q5 -11 15 -15.5t20 -4.5q23 0 33 17q5 8 6.5 17t2.5 17h133z" />
    <glyph glyph-name="sterling" unicode="&#xa3;" horiz-adv-x="498" 
d="M92 0v309h-62v101h62v97q0 47 16 86.5t44.5 67.5t68 43.5t86.5 15.5q48 0 87.5 -16t68.5 -45l-96 -96q-7 8 -19 18.5t-41 10.5t-51 -21.5t-22 -63.5v-97h74v-101h-74v-181h229v-128h-371z" />
    <glyph glyph-name="section" unicode="&#xa7;" horiz-adv-x="452" 
d="M415 269q0 -24 -1.5 -44.5t-6.5 -38.5t-16 -34.5t-30 -31.5q-3 -2 -5.5 -4t-5.5 -4q25 -17 39 -42q19 -34 19 -76q0 -45 -14 -74.5t-39 -54.5q-24 -24 -59 -34.5t-73 -10.5t-72 12.5t-57 35.5q-24 25 -38 53t-15 69h136q0 -22 13 -35q14 -14 33 -14q24 0 35 11
q5 5 8.5 12t3.5 18q0 15 -9 27q-6 8 -16 13.5t-21 10.5l-77 29q-33 13 -57 35q-20 19 -30.5 39t-15.5 41t-6 43.5t-1 48.5q0 23 1.5 42.5t7 36.5t16 32.5t29.5 30.5q3 2 6 5t7 5q-26 17 -41 41q-19 29 -19 77q0 41 13.5 71t36.5 53q24 25 59 37t72 12q69 0 117 -37
q28 -21 43.5 -53.5t16.5 -74.5h-134q0 22 -12 34q-13 13 -31 13q-17 0 -31 -12q-12 -11 -12 -30q0 -16 7 -26q10 -15 35 -24l76 -28q17 -6 36.5 -17t31.5 -23q14 -15 23 -29.5t14.5 -33.5t7.5 -43.5t2 -58.5zM281 291q0 13 -2 25t-6.5 22.5t-13.5 17.5q-14 11 -33 11
t-33 -11q-9 -7 -13.5 -17.5t-6.5 -22.5t-2 -25v-43q0 -12 2 -24.5t6.5 -23.5t13.5 -18q14 -11 33 -11t33 11q9 7 13.5 17.5t6.5 22.5t2 24v45z" />
    <glyph glyph-name="bullet" unicode="&#x2022;" horiz-adv-x="436" 
d="M381 334q0 -34 -13 -63.5t-35 -51.5t-51.5 -35t-63.5 -13t-63.5 13t-51.5 35t-35 51.5t-13 63.5t13 63.5t35 51.5t51.5 35t63.5 13t63.5 -13t51.5 -35t35 -51.5t13 -63.5z" />
    <glyph glyph-name="paragraph" unicode="&#xb6;" horiz-adv-x="638" 
d="M456 -174v758h-90v-758h-134v448h-50q-71 0 -111.5 50.5t-40.5 168.5t40.5 168.5t111.5 50.5h408v-886h-134z" />
    <glyph glyph-name="germandbls" unicode="&#xdf;" horiz-adv-x="440" 
d="M411 209q0 -21 -1 -43t-6 -43t-15.5 -41.5t-29.5 -38.5q-27 -26 -62.5 -34.5t-71.5 -8.5v120q8 0 19 2t19 12q6 8 9 19.5t4 23.5t1 24v21q0 17 -1 39.5t-10 38.5q-5 8 -12.5 13t-21.5 5h-7v112h8q11 0 18 4.5t11 10.5q8 13 8.5 31.5t0.5 33.5q0 17 -1 38t-10 35
q-5 8 -13 12.5t-22 4.5q-20 0 -32.5 -13.5t-12.5 -39.5v-547h-134v544q0 48 13 77t37 52t57.5 35t70.5 12t70.5 -9.5t59.5 -35.5q34 -34 42.5 -73t8.5 -79q0 -26 -2 -51.5t-14 -50.5q-14 -28 -40 -47q30 -21 45 -50q13 -27 15 -56.5t2 -58.5z" />
    <glyph glyph-name="registered" unicode="&#xae;" horiz-adv-x="834" 
d="M779 356q0 -75 -28.5 -141t-77.5 -115t-115 -77.5t-141 -28.5t-141 28.5t-115 77.5t-77.5 115t-28.5 141t28.5 141t77.5 115t115 77.5t141 28.5t141 -28.5t115 -77.5t77.5 -115t28.5 -141zM693 356q0 62 -21 114t-58 89.5t-87.5 58.5t-109.5 21t-109.5 -21t-87.5 -58.5
t-58 -89.5t-21 -114t21 -114t58 -89.5t87.5 -58.5t109.5 -21t109.5 21t87.5 58.5t58 89.5t21 114zM465 159l-45 152h-23v-152h-77v392h108q28 0 47 -7t31 -19q15 -16 21 -39.5t6 -54.5q0 -26 -4.5 -48.5t-20.5 -39.5q-8 -8 -18 -15l55 -169h-80zM456 431q0 11 -1.5 21.5
t-6.5 17.5q-4 4 -8.5 6.5t-12.5 2.5h-30v-96h30q13 0 21 8q5 7 6.5 18t1.5 22z" />
    <glyph glyph-name="copyright" unicode="&#xa9;" horiz-adv-x="834" 
d="M779 356q0 -75 -28.5 -141t-77.5 -115t-115 -77.5t-141 -28.5t-141 28.5t-115 77.5t-77.5 115t-28.5 141t28.5 141t77.5 115t115 77.5t141 28.5t141 -28.5t115 -77.5t77.5 -115t28.5 -141zM693 356q0 62 -21 114t-58 89.5t-87.5 58.5t-109.5 21t-109.5 -21t-87.5 -58.5
t-58 -89.5t-21 -114t21 -114t58 -89.5t87.5 -58.5t109.5 -21t109.5 21t87.5 58.5t58 89.5t21 114zM527 272q-2 -29 -10.5 -52t-23.5 -37q-28 -28 -73 -28q-32 0 -50.5 11t-31.5 28q-12 14 -17.5 34.5t-8 42.5t-2.5 43v80q0 22 2.5 44.5t8 43t17.5 34.5q13 16 31.5 27.5
t50.5 11.5q45 0 73 -28q31 -31 34 -89h-77q0 19 -6 31q-6 14 -24 14q-17 0 -24 -15q-7 -14 -8.5 -46t-1.5 -67t1.5 -67.5t8.5 -46.5q9 -14 24 -14q9 0 14 3t9 8q8 11 8 34h76z" />
    <glyph glyph-name="trademark" unicode="&#x2122;" horiz-adv-x="647" 
d="M516 271v230l-46 -152h-44l-46 151v-229h-85v441h75l78 -216l78 216h76v-441h-86zM177 633v-362h-85v362h-72v79h229v-79h-72z" />
    <glyph glyph-name="acute" unicode="&#xb4;" 
d="M244 587h-88l76 145h107z" />
    <glyph glyph-name="dieresis" unicode="&#xa8;" 
d="M250 592v120h120v-120h-120zM54 592v120h120v-120h-120z" />
    <glyph glyph-name="AE" unicode="&#xc6;" horiz-adv-x="715" 
d="M355 0v121h-152l-40 -121h-157l259 712h418v-128h-186v-161h160v-128h-160v-167h186v-128h-328zM355 584l-110 -335h110v335z" />
    <glyph glyph-name="Oslash" unicode="&#xd8;" horiz-adv-x="486" 
d="M452 356q0 -36 -0.5 -76.5t-5 -80.5t-15.5 -75.5t-32 -60.5q-25 -29 -61 -50t-96 -21q-28 0 -50 5t-40 13l-21 -54h-88l42 109q-21 25 -31.5 60.5t-15 75t-4.5 79.5v76q0 36 0.5 76.5t5 80.5t15.5 75t32 61q12 15 26.5 27.5t33 22.5t42 15.5t53.5 5.5q29 0 51 -5t41 -14
l21 55h88l-42 -109q21 -26 31.5 -61t15 -74.5t4.5 -79.5v-76zM286 573q-7 8 -17.5 13.5t-26.5 5.5q-20 0 -30.5 -8t-16.5 -20t-10 -34t-6 -50t-2.5 -60t-0.5 -64v-36q0 -18 1 -35zM310 356v36q0 18 -1 35l-109 -288q7 -8 16.5 -13.5t25.5 -5.5q20 0 31.5 8t17.5 20t10 34
t6 50t2.5 60t0.5 64z" />
    <glyph glyph-name="plusminus" unicode="&#xb1;" horiz-adv-x="472" 
d="M300 333v-130h-128v130h-130v128h130v130h128v-130h130v-128h-130zM42 0v128h388v-128h-388z" />
    <glyph glyph-name="yen" unicode="&#xa5;" horiz-adv-x="430" 
d="M326 409h63v-101h-95l-12 -40v-40h107v-101h-107v-127h-134v127h-107v101h107v40l-12 40h-95v101h63l-93 303h147l57 -258l57 258h147z" />
    <glyph glyph-name="mu" unicode="&#xb5;" horiz-adv-x="445" 
d="M268 0v39q-8 -10 -18 -19t-21 -15q-11 -5 -24.5 -9t-29.5 -4h-3v-166h-128v712h134v-377q0 -25 12 -37t30 -12t30 12t12 37v377h134v-538h-128z" />
    <glyph glyph-name="ordfeminine" unicode="&#xaa;" horiz-adv-x="351" 
d="M210 280v33q-8 -10 -16 -16t-14 -10q-20 -10 -45 -10q-31 0 -51.5 7.5t-38.5 29.5q-14 17 -19.5 40.5t-5.5 54.5q0 61 42 97q17 14 41.5 22t67.5 8h32v48q0 37 -32 37q-8 0 -14.5 -3.5t-10.5 -8.5q-6 -7 -6.5 -15.5t-0.5 -12.5h-111q0 27 9 51.5t31 45.5q17 17 45.5 28
t57.5 11q28 0 54.5 -8t46.5 -28q19 -18 30.5 -44t11.5 -63v-294h-104zM203 460h-18q-10 0 -21.5 -1t-19.5 -9q-6 -6 -9.5 -17t-3.5 -19q0 -23 9.5 -34t26.5 -11q14 0 25 11t11 34v46z" />
    <glyph glyph-name="ordmasculine" unicode="&#xba;" horiz-adv-x="348" 
d="M321 495q0 -21 -1 -44.5t-4 -46.5t-9.5 -43.5t-16.5 -35.5q-21 -32 -51 -41.5t-65 -9.5t-65 9.5t-52 41.5q-11 15 -17 35.5t-9 43.5t-3.5 46.5t-0.5 44.5q0 22 0.5 45.5t3.5 46t9 43t17 35.5q22 32 52 42t65 10t65 -10t51 -42q10 -15 16.5 -35.5t9.5 -43t4 -46t1 -45.5z
M210 519q0 15 -1 31t-2.5 30.5t-5.5 22.5q-4 9 -11.5 12.5t-15.5 3.5t-15.5 -3.5t-12.5 -12.5q-3 -8 -5 -22t-2.5 -30.5t-0.5 -31.5v-48q0 -15 0.5 -31t2.5 -30.5t5 -22.5q9 -16 28 -16q8 0 15.5 4t11.5 12q4 7 5.5 22t2.5 31t1 31v48z" />
    <glyph glyph-name="ae" unicode="&#xe6;" horiz-adv-x="635" 
d="M381 226q0 -27 2 -54.5t8 -38.5q5 -9 13.5 -15t21.5 -6t20.5 5.5t14.5 15.5q3 5 5 16t2 17h133q-2 -32 -12.5 -66t-35.5 -62q-23 -25 -55.5 -35.5t-71.5 -10.5q-26 0 -50 5.5t-44 18.5q-27 17 -46 44q-12 -15 -23 -27t-23 -20q-15 -11 -33.5 -16t-44.5 -5
q-38 0 -62.5 11.5t-46.5 38.5q-17 21 -24 51t-7 68q0 76 52 120q20 17 49.5 27.5t82.5 10.5h41v63q0 23 -11.5 34.5t-28.5 11.5q-21 0 -31 -15q-10 -13 -10 -35h-134q0 33 11.5 63t37.5 57q20 20 55 34t70 14q23 0 46.5 -5.5t42.5 -17.5q12 -8 20 -18q4 5 8 8t9 7
q20 14 45 20t49 6q35 0 66 -8.5t59 -37.5q22 -24 33 -57.5t15.5 -71t4.5 -75.5v-70h-223zM247 226h-23q-17 0 -28.5 -1.5t-22.5 -11.5q-8 -8 -12.5 -21.5t-4.5 -24.5q0 -29 12.5 -43.5t33.5 -14.5q18 0 31.5 14.5t13.5 43.5v59zM470 323q0 27 -2 51t-7 32q-6 8 -14 14t-21 6
t-21 -6t-14 -14q-5 -8 -7.5 -32t-2.5 -51h89z" />
    <glyph glyph-name="oslash" unicode="&#xf8;" horiz-adv-x="420" 
d="M352 482q13 -19 20 -44.5t11 -54t5 -58t1 -56.5t-1 -56.5t-5 -58t-11 -54t-20 -44.5q-26 -39 -62.5 -51.5t-79.5 -12.5q-22 0 -42.5 2.5t-39.5 10.5l-22 -49h-84l46 100q-13 19 -20.5 44.5t-11 54t-4.5 58t-1 56.5t1 56.5t4.5 58t11 54t20.5 44.5q26 39 62.5 51.5
t79.5 12.5q22 0 42.5 -2.5t39.5 -10.5l22 49h84zM240 419q-6 7 -14 10t-16 3q-10 0 -20.5 -5t-15.5 -17q-8 -17 -9 -55t-1 -86v-18zM256 286l-76 -167q6 -7 14 -10t16 -3q10 0 20.5 5t15.5 17q8 17 9 55t1 86v17z" />
    <glyph glyph-name="questiondown" unicode="&#xbf;" horiz-adv-x="455" 
d="M400 31q0 -49 -11.5 -91t-40.5 -68q-23 -21 -54.5 -36.5t-78.5 -15.5q-45 0 -78.5 13.5t-56.5 36.5q-29 29 -40.5 67.5t-11.5 89.5q0 45 9 75.5t28 52.5l59 70q24 29 24 60v46h134v-61q0 -25 -10 -48t-25 -40l-59 -70q-17 -20 -21.5 -40t-4.5 -49q0 -18 2 -35.5t13 -30.5
q15 -17 37 -17q21 0 36 17q12 14 14 34t2 40h134zM140 388v150h150v-150h-150z" />
    <glyph glyph-name="exclamdown" unicode="&#xa1;" horiz-adv-x="274" 
d="M60 -174v505h134v-505h-134zM52 388v150h150v-150h-150z" />
    <glyph glyph-name="logicalnot" unicode="&#xac;" horiz-adv-x="472" 
d="M293 137v114h-242v128h370v-242h-128z" />
    <glyph glyph-name="florin" unicode="&#x192;" horiz-adv-x="381" 
d="M303 602q-16 0 -27 -10t-13 -24l-31 -176h70v-101h-88l-82 -465h-132l81 465h-49v101h67l32 186q7 39 23.5 66.5t39.5 44.5t49.5 25t52.5 8h60v-120h-53z" />
    <glyph glyph-name="guillemotleft" unicode="&#xab;" horiz-adv-x="438" 
d="M22 280l174 270v-193l-52 -77l52 -78v-193zM222 280l174 270v-193l-54 -77l54 -78v-193z" />
    <glyph glyph-name="guillemotright" unicode="&#xbb;" horiz-adv-x="438" 
d="M242 9v193l52 78l-52 77v193l174 -270zM42 9v193l54 78l-54 77v193l174 -270z" />
    <glyph glyph-name="ellipsis" unicode="&#x2026;" horiz-adv-x="714" 
d="M512 0v150h150v-150h-150zM52 0v150h150v-150h-150zM282 0v150h150v-150h-150z" />
    <glyph glyph-name="Agrave" unicode="&#xc0;" horiz-adv-x="518" 
d="M364 0l-23 111h-164l-23 -111h-148l183 712h140l183 -712h-148zM259 503l-55 -264h110zM227 757l-95 145h107l76 -145h-88z" />
    <glyph glyph-name="Atilde" unicode="&#xc3;" horiz-adv-x="518" 
d="M364 0l-23 111h-164l-23 -111h-148l183 712h140l183 -712h-148zM421 815q-26 -26 -48.5 -38.5t-51.5 -12.5q-18 0 -33 3t-33 14q-23 14 -45 14q-11 0 -22 -3.5t-26 -18.5l-55 56q26 26 48 39t51 13q18 0 33 -3.5t33 -14.5q23 -14 45 -14q11 0 21.5 3.5t25.5 18.5z
M259 503l-55 -264h110z" />
    <glyph glyph-name="Otilde" unicode="&#xd5;" horiz-adv-x="486" 
d="M452 356q0 -36 -0.5 -76.5t-5 -80.5t-15.5 -75.5t-32 -60.5q-25 -29 -61 -50t-96 -21q-30 0 -53.5 5.5t-42 15.5t-33 22.5t-26.5 27.5q-21 25 -32 60.5t-15.5 75.5t-5 80.5t-0.5 76.5t0.5 76.5t5 80.5t15.5 75t32 61q12 15 26.5 27.5t33 22.5t42 15.5t53.5 5.5
q60 0 96 -21t61 -50q21 -26 32 -61t15.5 -75t5 -80.5t0.5 -76.5zM310 356q0 32 -0.5 64t-2.5 60t-6 50t-10 34t-17.5 20t-31.5 8t-30.5 -8t-16.5 -20t-10 -34t-6 -50t-2.5 -60t-0.5 -64t0.5 -64t2.5 -60t6 -50t10 -34t16.5 -20t30.5 -8t31.5 8t17.5 20t10 34t6 50t2.5 60
t0.5 64zM405 815q-26 -26 -48.5 -38.5t-51.5 -12.5q-18 0 -33 3t-33 14q-23 14 -45 14q-11 0 -22 -3.5t-26 -18.5l-55 56q26 26 48 39t51 13q18 0 33 -3.5t33 -14.5q23 -14 45 -14q11 0 21.5 3.5t25.5 18.5z" />
    <glyph glyph-name="OE" unicode="&#x152;" horiz-adv-x="664" 
d="M320 0v20q-16 -11 -39 -19.5t-46 -8.5q-53 0 -89 20t-59 51q-18 24 -28.5 59.5t-16 75t-7 81t-1.5 77.5t1.5 77.5t6.5 81.5t16 75t29 59q24 31 59.5 51t88.5 20q23 0 47.5 -8.5t37.5 -19.5v20h312v-128h-186v-161h160v-128h-160v-167h186v-128h-312zM310 356
q0 32 -0.5 64t-2.5 60t-6 50t-10 34t-17.5 20t-31.5 8t-30.5 -8t-16.5 -20t-10 -34t-6 -50t-2.5 -60t-0.5 -64t0.5 -64t2.5 -60t6 -50t10 -34t16.5 -20t30.5 -8t31.5 8t17.5 20t10 34t6 50t2.5 60t0.5 64z" />
    <glyph glyph-name="oe" unicode="&#x153;" horiz-adv-x="643" 
d="M389 226q0 -27 2 -54.5t8 -38.5q5 -9 13.5 -15t21.5 -6t20.5 5.5t14.5 15.5q3 5 5 16t2 17h133q-2 -32 -12.5 -66t-35.5 -62q-23 -25 -55.5 -35.5t-71.5 -10.5q-28 0 -52 8t-42 21q-5 3 -9 6l-7 8q-8 -10 -17 -15q-19 -13 -44.5 -20.5t-52.5 -7.5q-43 0 -79.5 12.5
t-62.5 51.5q-13 19 -20.5 44.5t-11 54t-4.5 58t-1 56.5t1 56.5t4.5 58t11 54t20.5 44.5q26 39 62.5 51.5t79.5 12.5q27 0 53.5 -8t46.5 -22q4 -3 7.5 -6t6.5 -7q4 5 8.5 8t9.5 7q20 13 44.5 20.5t47.5 7.5q35 0 66 -8.5t59 -37.5q22 -24 33 -57.5t15.5 -71t4.5 -75.5v-70
h-223zM255 269q0 46 -1 82.5t-9 53.5q-5 11 -15 16t-20 5t-20 -5t-15 -16q-8 -17 -9 -53.5t-1 -82.5t1 -82.5t9 -53.5q5 -11 15 -16t20 -5t20 5t15 16q8 17 9 53.5t1 82.5zM478 323q0 27 -2 51t-7 32q-6 8 -14 14t-21 6t-21 -6t-14 -14q-5 -8 -7.5 -32t-2.5 -51h89z" />
    <glyph glyph-name="endash" unicode="&#x2013;" horiz-adv-x="472" 
d="M42 231v128h388v-128h-388z" />
    <glyph glyph-name="emdash" unicode="&#x2014;" horiz-adv-x="734" 
d="M42 231v128h650v-128h-650z" />
    <glyph glyph-name="quotedblleft" unicode="&#x201c;" horiz-adv-x="468" 
d="M270 570v142l142 105v-247h-142zM56 570v142l142 105v-247h-142z" />
    <glyph glyph-name="quotedblright" unicode="&#x201d;" horiz-adv-x="468" 
d="M270 465v247h142v-142zM56 465v247h142v-142z" />
    <glyph glyph-name="quoteleft" unicode="&#x2018;" horiz-adv-x="254" 
d="M56 570v142l142 105v-247h-142z" />
    <glyph glyph-name="quoteright" unicode="&#x2019;" horiz-adv-x="254" 
d="M56 465v247h142v-142z" />
    <glyph glyph-name="divide" unicode="&#xf7;" horiz-adv-x="472" 
d="M42 218v128h388v-128h-388zM161 414v150h150v-150h-150zM161 0v150h150v-150h-150z" />
    <glyph glyph-name="ydieresis" unicode="&#xff;" 
d="M270 -49q-12 -45 -33.5 -70.5t-50.5 -37.5t-65 -14.5t-76 -2.5v118q15 0 29.5 0.5t27 4.5t22 14t15.5 30l2 7l-137 538h148l60 -325l60 325h148zM54 592v120h120v-120h-120zM250 592v120h120v-120h-120z" />
    <glyph glyph-name="Ydieresis" unicode="&#x178;" horiz-adv-x="430" 
d="M286 268v-268h-142v268l-145 444h156l60 -258l60 258h156zM57 762v120h120v-120h-120zM253 762v120h120v-120h-120z" />
    <glyph glyph-name="fraction" unicode="&#x2044;" horiz-adv-x="143" 
d="M0 0h-102l245 712h102z" />
    <glyph glyph-name="currency" unicode="&#xa4;" horiz-adv-x="520" 
d="M399 73l-56 56q-19 -9 -39.5 -14.5t-43.5 -5.5t-43.5 5.5t-39.5 14.5l-56 -56l-83 83l56 56q-9 19 -14.5 39.5t-5.5 43.5t5.5 43.5t14.5 39.5l-56 56l83 83l56 -56q19 9 39.5 14.5t43.5 5.5t43.5 -5.5t39.5 -14.5l56 56l83 -83l-56 -56q9 -19 14.5 -39.5t5.5 -43.5
t-5.5 -43.5t-14.5 -39.5l56 -56zM333 295q0 30 -21.5 51.5t-51.5 21.5t-51.5 -21.5t-21.5 -51.5t21.5 -51.5t51.5 -21.5t51.5 21.5t21.5 51.5z" />
    <glyph glyph-name="guilsinglleft" unicode="&#x2039;" horiz-adv-x="238" 
d="M22 280l174 270v-193l-52 -77l52 -78v-193z" />
    <glyph glyph-name="guilsinglright" unicode="&#x203a;" horiz-adv-x="238" 
d="M42 9v193l52 78l-52 77v193l174 -270z" />
    <glyph glyph-name="fi" unicode="&#xfb01;" horiz-adv-x="499" 
d="M204 416v-416h-134v416h-50v101h50v33q0 53 16.5 86.5t45.5 53.5q29 21 62.5 27t75.5 6v-120q-35 0 -50.5 -13.5t-15.5 -48.5v-24h66v-101h-66zM319 0v517h134v-517h-134zM315 576v142h142v-142h-142z" />
    <glyph glyph-name="fl" unicode="&#xfb02;" horiz-adv-x="537" 
d="M204 416v-416h-134v416h-50v101h50v33q0 53 16.5 86.5t45.5 53.5q29 21 62.5 27t75.5 6v-120q-66 0 -66 -62v-24h66v-101h-66zM519 0q-42 0 -75.5 6t-62.5 27q-29 20 -45.5 53.5t-16.5 86.5v539h134v-530q0 -62 66 -62v-120z" />
    <glyph glyph-name="daggerdbl" unicode="&#x2021;" horiz-adv-x="456" 
d="M290 0v-174h-124v174h-124v111h124v316h-124v111h124v174h124v-174h124v-111h-124v-316h124v-111h-124z" />
    <glyph glyph-name="periodcentered" unicode="&#xb7;" horiz-adv-x="280" 
d="M50 208v180h180v-180h-180z" />
    <glyph glyph-name="quotesinglbase" unicode="&#x201a;" horiz-adv-x="254" 
d="M56 -105v247h142v-142z" />
    <glyph glyph-name="quotedblbase" unicode="&#x201e;" horiz-adv-x="468" 
d="M270 -105v247h142v-142zM56 -105v247h142v-142z" />
    <glyph glyph-name="perthousand" unicode="&#x2030;" horiz-adv-x="1140" 
d="M328 479q0 -34 -12 -58.5t-31.5 -41t-45.5 -24.5t-54 -8t-54 8t-45.5 24.5t-31.5 41t-12 58.5v109q0 34 12 58.5t31.5 41t45.5 24.5t54 8t54 -8t45.5 -24.5t31.5 -41t12 -58.5v-109zM754 124q0 -34 -12 -58.5t-31.5 -41t-45.5 -24.5t-54 -8t-54 8t-45.5 24.5t-31.5 41
t-12 58.5v109q0 34 12 58.5t31.5 41t45.5 24.5t54 8t54 -8t45.5 -24.5t31.5 -41t12 -58.5v-109zM1098 124q0 -34 -12 -58.5t-31.5 -41t-45.5 -24.5t-54 -8t-54 8t-45.5 24.5t-31.5 41t-12 58.5v109q0 34 12 58.5t31.5 41t45.5 24.5t54 8t54 -8t45.5 -24.5t31.5 -41t12 -58.5
v-109zM326 0h-102l248 712h102zM990 230q0 21 -10 30t-25 9t-25 -9t-10 -30v-103q0 -21 10 -30t25 -9t25 9t10 30v103zM646 230q0 21 -10 30t-25 9t-25 -9t-10 -30v-103q0 -21 10 -30t25 -9t25 9t10 30v103zM220 585q0 21 -10 30t-25 9t-25 -9t-10 -30v-103q0 -21 10 -30
t25 -9t25 9t10 30v103z" />
    <glyph glyph-name="Acircumflex" unicode="&#xc2;" horiz-adv-x="518" 
d="M364 0l-23 111h-164l-23 -111h-148l183 712h140l183 -712h-148zM318 757l-59 77l-59 -77h-98l106 145h102l106 -145h-98zM259 503l-55 -264h110z" />
    <glyph glyph-name="Ecircumflex" unicode="&#xca;" horiz-adv-x="415" 
d="M55 0v712h328v-128h-186v-161h160v-128h-160v-167h186v-128h-328zM281 757l-59 77l-59 -77h-98l106 145h102l106 -145h-98z" />
    <glyph glyph-name="Aacute" unicode="&#xc1;" horiz-adv-x="518" 
d="M364 0l-23 111h-164l-23 -111h-148l183 712h140l183 -712h-148zM259 503l-55 -264h110zM291 757h-88l76 145h107z" />
    <glyph glyph-name="Edieresis" unicode="&#xcb;" horiz-adv-x="415" 
d="M55 0v712h328v-128h-186v-161h160v-128h-160v-167h186v-128h-328zM64 762v120h120v-120h-120zM260 762v120h120v-120h-120z" />
    <glyph glyph-name="Egrave" unicode="&#xc8;" horiz-adv-x="415" 
d="M55 0v712h328v-128h-186v-161h160v-128h-160v-167h186v-128h-328zM190 757l-95 145h107l76 -145h-88z" />
    <glyph glyph-name="Iacute" unicode="&#xcd;" horiz-adv-x="252" 
d="M55 0v712h142v-712h-142zM158 757h-88l76 145h107z" />
    <glyph glyph-name="Icircumflex" unicode="&#xce;" horiz-adv-x="252" 
d="M55 0v712h142v-712h-142zM185 757l-59 77l-59 -77h-98l106 145h102l106 -145h-98z" />
    <glyph glyph-name="Idieresis" unicode="&#xcf;" horiz-adv-x="252" 
d="M55 0v712h142v-712h-142zM-31 762v120h120v-120h-120zM165 762v120h120v-120h-120z" />
    <glyph glyph-name="Igrave" unicode="&#xcc;" horiz-adv-x="252" 
d="M55 0v712h142v-712h-142zM109 757l-95 145h107l76 -145h-88z" />
    <glyph glyph-name="Oacute" unicode="&#xd3;" horiz-adv-x="486" 
d="M452 356q0 -36 -0.5 -76.5t-5 -80.5t-15.5 -75.5t-32 -60.5q-25 -29 -61 -50t-96 -21q-30 0 -53.5 5.5t-42 15.5t-33 22.5t-26.5 27.5q-21 25 -32 60.5t-15.5 75.5t-5 80.5t-0.5 76.5t0.5 76.5t5 80.5t15.5 75t32 61q12 15 26.5 27.5t33 22.5t42 15.5t53.5 5.5
q60 0 96 -21t61 -50q21 -26 32 -61t15.5 -75t5 -80.5t0.5 -76.5zM310 356q0 32 -0.5 64t-2.5 60t-6 50t-10 34t-17.5 20t-31.5 8t-30.5 -8t-16.5 -20t-10 -34t-6 -50t-2.5 -60t-0.5 -64t0.5 -64t2.5 -60t6 -50t10 -34t16.5 -20t30.5 -8t31.5 8t17.5 20t10 34t6 50t2.5 60
t0.5 64zM276 757h-88l76 145h107z" />
    <glyph glyph-name="Ocircumflex" unicode="&#xd4;" horiz-adv-x="486" 
d="M452 356q0 -36 -0.5 -76.5t-5 -80.5t-15.5 -75.5t-32 -60.5q-25 -29 -61 -50t-96 -21q-30 0 -53.5 5.5t-42 15.5t-33 22.5t-26.5 27.5q-21 25 -32 60.5t-15.5 75.5t-5 80.5t-0.5 76.5t0.5 76.5t5 80.5t15.5 75t32 61q12 15 26.5 27.5t33 22.5t42 15.5t53.5 5.5
q60 0 96 -21t61 -50q21 -26 32 -61t15.5 -75t5 -80.5t0.5 -76.5zM310 356q0 32 -0.5 64t-2.5 60t-6 50t-10 34t-17.5 20t-31.5 8t-30.5 -8t-16.5 -20t-10 -34t-6 -50t-2.5 -60t-0.5 -64t0.5 -64t2.5 -60t6 -50t10 -34t16.5 -20t30.5 -8t31.5 8t17.5 20t10 34t6 50t2.5 60
t0.5 64zM302 757l-59 77l-59 -77h-98l106 145h102l106 -145h-98z" />
    <glyph glyph-name="Ograve" unicode="&#xd2;" horiz-adv-x="486" 
d="M452 356q0 -36 -0.5 -76.5t-5 -80.5t-15.5 -75.5t-32 -60.5q-25 -29 -61 -50t-96 -21q-30 0 -53.5 5.5t-42 15.5t-33 22.5t-26.5 27.5q-21 25 -32 60.5t-15.5 75.5t-5 80.5t-0.5 76.5t0.5 76.5t5 80.5t15.5 75t32 61q12 15 26.5 27.5t33 22.5t42 15.5t53.5 5.5
q60 0 96 -21t61 -50q21 -26 32 -61t15.5 -75t5 -80.5t0.5 -76.5zM310 356q0 32 -0.5 64t-2.5 60t-6 50t-10 34t-17.5 20t-31.5 8t-30.5 -8t-16.5 -20t-10 -34t-6 -50t-2.5 -60t-0.5 -64t0.5 -64t2.5 -60t6 -50t10 -34t16.5 -20t30.5 -8t31.5 8t17.5 20t10 34t6 50t2.5 60
t0.5 64zM211 757l-95 145h107l76 -145h-88z" />
    <glyph glyph-name="Uacute" unicode="&#xda;" horiz-adv-x="502" 
d="M452 191q0 -43 -13.5 -78.5t-39.5 -61.5q-57 -59 -148 -59t-148 59q-26 26 -39.5 61.5t-13.5 78.5v521h142v-528q0 -35 17.5 -49.5t41.5 -14.5t41.5 14.5t17.5 49.5v528h142v-521zM284 757h-88l76 145h107z" />
    <glyph glyph-name="Ucircumflex" unicode="&#xdb;" horiz-adv-x="502" 
d="M452 191q0 -43 -13.5 -78.5t-39.5 -61.5q-57 -59 -148 -59t-148 59q-26 26 -39.5 61.5t-13.5 78.5v521h142v-528q0 -35 17.5 -49.5t41.5 -14.5t41.5 14.5t17.5 49.5v528h142v-521zM310 757l-59 77l-59 -77h-98l106 145h102l106 -145h-98z" />
    <glyph glyph-name="Ugrave" unicode="&#xd9;" horiz-adv-x="502" 
d="M452 191q0 -43 -13.5 -78.5t-39.5 -61.5q-57 -59 -148 -59t-148 59q-26 26 -39.5 61.5t-13.5 78.5v521h142v-528q0 -35 17.5 -49.5t41.5 -14.5t41.5 14.5t17.5 49.5v528h142v-521zM219 757l-95 145h107l76 -145h-88z" />
    <glyph glyph-name="dotlessi" unicode="&#x131;" horiz-adv-x="226" 
d="M48 0v538h134v-538h-134z" />
    <glyph glyph-name="circumflex" unicode="&#x2c6;" 
d="M271 587l-59 77l-59 -77h-98l106 145h102l106 -145h-98z" />
    <glyph glyph-name="tilde" unicode="&#x2dc;" 
d="M374 645q-26 -26 -48.5 -38.5t-51.5 -12.5q-18 0 -33 3t-33 14q-23 14 -45 14q-11 0 -22 -3.5t-26 -18.5l-55 56q26 26 48 39t51 13q18 0 33 -3.5t33 -14.5q23 -14 45 -14q11 0 21.5 3.5t25.5 18.5z" />
    <glyph glyph-name="macron" unicode="&#xaf;" 
d="M80 609v85h264v-85h-264z" />
    <glyph glyph-name="breve" unicode="&#x2d8;" 
d="M345 695q-1 -36 -13 -60.5t-30.5 -39t-42 -21t-47.5 -6.5t-47.5 6.5t-42 21t-30.5 39t-13 60.5h86q2 -23 17 -30.5t30 -7.5t30 7.5t17 30.5h86z" />
    <glyph glyph-name="dotaccent" unicode="&#x2d9;" 
d="M152 592v120h120v-120h-120z" />
    <glyph glyph-name="ring" unicode="&#x2da;" 
d="M324 701q0 -23 -9 -43.5t-24 -35.5t-35.5 -24t-43.5 -9t-43.5 9t-35.5 24t-24 35.5t-9 43.5t9 43.5t24 35.5t35.5 24t43.5 9t43.5 -8.5t35.5 -23.5t24 -35.5t9 -44.5zM254 701q0 17 -12.5 29.5t-29.5 12.5t-29.5 -12.5t-12.5 -29.5t12.5 -29.5t29.5 -12.5t29.5 12.5
t12.5 29.5z" />
    <glyph glyph-name="cedilla" unicode="&#xb8;" 
d="M205 -207h-89l66 166h80z" />
    <glyph glyph-name="hungarumlaut" unicode="&#x2dd;" 
d="M150 587h-81l40 146h107zM339 587h-80l39 146h107z" />
    <glyph glyph-name="ogonek" unicode="&#x2db;" 
d="M220 -207l-57 166h80l66 -166h-89z" />
    <glyph glyph-name="caron" unicode="&#x2c7;" 
d="M263 587h-102l-106 145h98l59 -77l59 77h98z" />
    <glyph glyph-name="Eth" unicode="&#xd0;" horiz-adv-x="523" 
d="M489 356q0 -35 -0.5 -75t-5 -79t-15.5 -73.5t-32 -59.5q-24 -28 -60 -48.5t-96 -20.5h-201v304h-50v110h50v298h201q60 0 96 -20.5t60 -48.5q21 -25 32 -59.5t15.5 -73.5t5 -79t0.5 -75zM347 357q0 30 -0.5 59.5t-2 55.5t-5 47.5t-9.5 33.5q-7 14 -20 22.5t-33 8.5h-56
v-170h59v-110h-59v-176h56q20 0 33 8.5t20 22.5q6 12 9.5 33.5t5 48t2 56.5t0.5 60z" />
    <glyph glyph-name="Euro" unicode="&#x20ac;" horiz-adv-x="527" 
d="M492 203q-2 -51 -19 -92.5t-45 -67.5q-27 -26 -60 -38.5t-78 -12.5q-30 0 -53.5 5.5t-42 15.5t-33 22.5t-26.5 27.5q-24 29 -36 72t-14 85h-55v101h52v70h-52v101h55q2 42 14 85t36 72q12 15 26.5 27.5t33 22.5t42 15.5t53.5 5.5q45 0 78 -12.5t60 -38.5q28 -26 44.5 -67
t18.5 -92h-142q-1 15 -3 29.5t-8.5 26.5t-17.5 19t-30 7q-20 0 -32 -8t-18 -20q-7 -14 -9 -32.5t-3 -39.5h92v-101h-96v-70h96v-101h-92q1 -21 3.5 -39.5t9.5 -32.5q6 -11 17.5 -19.5t31.5 -8.5q19 0 30.5 7.5t17.5 19t8.5 26.5t3.5 30h142z" />
    <glyph glyph-name="uni00A0" unicode="&#xa0;" horiz-adv-x="170" 
 />
    <glyph glyph-name="eth" unicode="&#xf0;" horiz-adv-x="426" 
d="M391 240q0 -24 -1.5 -50.5t-5.5 -51.5t-11.5 -48t-20.5 -40q-26 -35 -61.5 -46.5t-78.5 -11.5t-78.5 11.5t-61.5 46.5q-13 17 -20.5 40t-11.5 48t-5.5 51.5t-1.5 50.5q0 72 4.5 124.5t32.5 84.5q20 22 43.5 30.5t56.5 8.5q14 0 32.5 -5t30.5 -14l-29 93h-72v97h42l-16 53
h134l16 -53h70v-97h-42l27 -93q7 -25 12.5 -49.5t9 -51.5t5 -58t1.5 -70zM257 243q0 38 -1 68t-9 44q-5 10 -15 14.5t-20 4.5t-20 -4.5t-15 -14.5q-8 -14 -9 -44t-1 -68t1 -68t9 -44q5 -10 15 -14.5t20 -4.5t20 4.5t15 14.5q8 14 9 44t1 68z" />
    <glyph glyph-name="Lslash" unicode="&#x141;" horiz-adv-x="426" 
d="M74 0v236l-45 -35v128l45 35v348h142v-238l93 72v-128l-93 -72v-218h186v-128h-328z" />
    <glyph glyph-name="uni00AD" unicode="&#xad;" horiz-adv-x="292" 
d="M42 231v128h208v-128h-208z" />
    <glyph glyph-name="uni2219" unicode="&#x2219;" horiz-adv-x="280" 
d="M50 208v180h180v-180h-180z" />
    <glyph glyph-name="uni2224" unicode="&#x2224;" horiz-adv-x="280" 
d="M50 208v180h180v-180h-180z" />
    <glyph glyph-name="uni2227" unicode="&#x2227;" horiz-adv-x="280" 
d="M50 208v180h180v-180h-180z" />
    <glyph glyph-name="uni22C5" unicode="&#x22c5;" horiz-adv-x="280" 
d="M50 208v180h180v-180h-180z" />
    <glyph glyph-name="uni037E" unicode="&#x37e;" horiz-adv-x="274" 
d="M76 -179v329h142v-224zM72 298v150h150v-150h-150z" />
    <glyph glyph-name="uni03BC" unicode="&#x3bc;" horiz-adv-x="445" 
d="M268 0v39q-8 -10 -18 -19t-21 -15q-11 -5 -24.5 -9t-29.5 -4h-3v-166h-128v712h134v-377q0 -25 12 -37t30 -12t30 12t12 37v377h134v-538h-128z" />
    <glyph glyph-name="uni02C9" unicode="&#x2c9;" 
d="M80 609v85h264v-85h-264z" />
    </font>
</defs>
</svg>
